<svg height="480" width="640" xmlns="http://www.w3.org/2000/svg" style="position:relative;top:-.3125px" overflow="hidden"><rect width="640" height="480" rx="0" ry="0" fill="#47bb5b" style="-webkit-tap-highlight-color:rgba(0,0,0,0)"/><ellipse cx="254" cy="206" rx="111" ry="156.51" fill="#fb5b6d" stroke="#c6924c" stroke-width="5" opacity=".11" style="-webkit-tap-highlight-color:rgba(0,0,0,0)"/><ellipse cx="334" cy="204" rx="133" ry="187.53" fill="#fb5b6d" stroke="#c6924c" transform="rotate(5.377 334.164 204.062)" stroke-width="5" opacity=".11" style="-webkit-tap-highlight-color:rgba(0,0,0,0)"/><ellipse cx="313" cy="205" rx="91" ry="128.31" fill="#fb5b6d" stroke="#c6924c" transform="rotate(10.748 312.936 204.95)" stroke-width="5" opacity=".11" style="-webkit-tap-highlight-color:rgba(0,0,0,0)"/><ellipse cx="239" cy="348" rx="134" ry="188.94" fill="#fb5b6d" stroke="#c6924c" transform="rotate(16.116 239.024 348.06)" stroke-width="5" opacity=".11" style="-webkit-tap-highlight-color:rgba(0,0,0,0)"/><ellipse cx="386" cy="329" rx="122" ry="172.02" fill="#fb5b6d" stroke="#c6924c" transform="rotate(21.493 385.98 328.98)" stroke-width="5" opacity=".11" style="-webkit-tap-highlight-color:rgba(0,0,0,0)"/><ellipse cx="419" cy="231" rx="80" ry="112.8" fill="#fb5b6d" stroke="#c6924c" transform="rotate(26.865 419 231.004)" stroke-width="5" opacity=".11" style="-webkit-tap-highlight-color:rgba(0,0,0,0)"/><ellipse cx="415" cy="300" rx="127" ry="179.07" fill="#fb5b6d" stroke="#c6924c" transform="rotate(32.237 415.036 300.034)" stroke-width="5" opacity=".11" style="-webkit-tap-highlight-color:rgba(0,0,0,0)"/><ellipse cx="252" cy="334" rx="124" ry="174.84" fill="#fb5b6d" stroke="#c6924c" transform="rotate(37.608 251.992 334.024)" stroke-width="5" opacity=".11" style="-webkit-tap-highlight-color:rgba(0,0,0,0)"/><ellipse cx="260" cy="166" rx="61" ry="86.01" fill="#fb5b6d" stroke="#c6924c" transform="rotate(42.986 260.003 166)" stroke-width="5" opacity=".11" style="-webkit-tap-highlight-color:rgba(0,0,0,0)"/><ellipse cx="437" cy="305" rx="72" ry="101.52" fill="#fb5b6d" stroke="#c6924c" transform="rotate(48.356 437.005 305.02)" stroke-width="5" opacity=".11" style="-webkit-tap-highlight-color:rgba(0,0,0,0)"/><ellipse cx="327" cy="250" rx="77" ry="108.57" fill="#fb5b6d" stroke="#c6924c" transform="rotate(53.732 326.98 249.984)" stroke-width="5" opacity=".11" style="-webkit-tap-highlight-color:rgba(0,0,0,0)"/><ellipse cx="207" cy="208" rx="83" ry="117.03" fill="#fb5b6d" stroke="#c6924c" transform="rotate(59.103 207 208.008)" stroke-width="5" opacity=".11" style="-webkit-tap-highlight-color:rgba(0,0,0,0)"/><ellipse cx="245" cy="320" rx="75" ry="105.75" fill="#fb5b6d" stroke="#c6924c" transform="rotate(64.475 245.001 320.015)" stroke-width="5" opacity=".11" style="-webkit-tap-highlight-color:rgba(0,0,0,0)"/><ellipse cx="335" cy="184" rx="136" ry="191.76" fill="#fb5b6d" stroke="#c6924c" transform="rotate(69.849 335 184.011)" stroke-width="5" opacity=".11" style="-webkit-tap-highlight-color:rgba(0,0,0,0)"/><ellipse cx="311" cy="188" rx="127" ry="179.07" fill="#fb5b6d" stroke="#c6924c" transform="rotate(75.226 311.009 187.998)" stroke-width="5" opacity=".11" style="-webkit-tap-highlight-color:rgba(0,0,0,0)"/><ellipse cx="363" cy="209" rx="136" ry="191.76" fill="#fb5b6d" stroke="#c6924c" transform="rotate(80.596 362.987 208.997)" stroke-width="5" opacity=".11" style="-webkit-tap-highlight-color:rgba(0,0,0,0)"/><ellipse cx="403" cy="248" rx="50" ry="70.5" fill="#fb5b6d" stroke="#c6924c" transform="rotate(85.969 403.013 248.015)" stroke-width="5" opacity=".11" style="-webkit-tap-highlight-color:rgba(0,0,0,0)"/><ellipse cx="357" cy="252" rx="112" ry="157.92" fill="#fb5b6d" stroke="#c6924c" transform="scale(-1) rotate(-88.659 -257.987 365.466)" stroke-width="5" opacity=".11" style="-webkit-tap-highlight-color:rgba(0,0,0,0)"/><ellipse cx="237" cy="224" rx="102" ry="143.82" fill="#fb5b6d" stroke="#c6924c" transform="scale(-1) rotate(-83.281 -251.935 266.57)" stroke-width="5" opacity=".11" style="-webkit-tap-highlight-color:rgba(0,0,0,0)"/><ellipse cx="415" cy="301" rx="110" ry="155.1" fill="#fb5b6d" stroke="#c6924c" transform="scale(-1) rotate(-77.912 -372.31 513.3)" stroke-width="5" opacity=".11" style="-webkit-tap-highlight-color:rgba(0,0,0,0)"/><ellipse cx="282" cy="316" rx="119" ry="167.79" fill="#fb5b6d" stroke="#c6924c" transform="rotate(107.464 282.003 315.996)" stroke-width="5" opacity=".11" style="-webkit-tap-highlight-color:rgba(0,0,0,0)"/><ellipse cx="423" cy="146" rx="60" ry="84.6" fill="#fb5b6d" stroke="#c6924c" transform="rotate(112.836 423.003 145.995)" stroke-width="5" opacity=".11" style="-webkit-tap-highlight-color:rgba(0,0,0,0)"/><ellipse cx="207" cy="252" rx="63" ry="88.83" fill="#fb5b6d" stroke="#c6924c" transform="rotate(118.21 207.005 251.997)" stroke-width="5" opacity=".11" style="-webkit-tap-highlight-color:rgba(0,0,0,0)"/><ellipse cx="313" cy="199" rx="139" ry="195.99" fill="#fb5b6d" stroke="#c6924c" transform="rotate(123.58 313.002 199.006)" stroke-width="5" opacity=".11" style="-webkit-tap-highlight-color:rgba(0,0,0,0)"/><ellipse cx="422" cy="193" rx="98" ry="138.18" fill="#fb5b6d" stroke="#c6924c" transform="scale(-1) rotate(-51.044 -404.241 883.9)" stroke-width="5" opacity=".11" style="-webkit-tap-highlight-color:rgba(0,0,0,0)"/><ellipse cx="209" cy="341" rx="99" ry="139.59" fill="#fb5b6d" stroke="#c6924c" transform="rotate(134.331 209.01 340.992)" stroke-width="5" opacity=".11" style="-webkit-tap-highlight-color:rgba(0,0,0,0)"/><ellipse cx="345" cy="184" rx="101" ry="142.41" fill="#fb5b6d" stroke="#c6924c" transform="scale(-1) rotate(-40.299 -501.45 940.202)" stroke-width="5" opacity=".11" style="-webkit-tap-highlight-color:rgba(0,0,0,0)"/><ellipse cx="273" cy="224" rx="101" ry="142.41" fill="#fb5b6d" stroke="#c6924c" transform="rotate(145.075 273.001 223.999)" stroke-width="5" opacity=".11" style="-webkit-tap-highlight-color:rgba(0,0,0,0)"/><ellipse cx="420" cy="322" rx="93" ry="131.13" fill="#fb5b6d" stroke="#c6924c" transform="rotate(150.447 420.005 321.999)" stroke-width="5" opacity=".11" style="-webkit-tap-highlight-color:rgba(0,0,0,0)"/><ellipse cx="362" cy="167" rx="141" ry="198.81" fill="#fb5b6d" stroke="#c6924c" transform="scale(-1) rotate(-24.179 -779.658 1690.045)" stroke-width="5" opacity=".11" style="-webkit-tap-highlight-color:rgba(0,0,0,0)"/><ellipse cx="263" cy="211" rx="81" ry="114.21" fill="#fb5b6d" stroke="#c6924c" transform="rotate(161.191 262.997 211.006)" stroke-width="5" opacity=".11" style="-webkit-tap-highlight-color:rgba(0,0,0,0)"/><ellipse cx="309" cy="353" rx="71" ry="100.11" fill="#fb5b6d" stroke="#c6924c" transform="scale(-1) rotate(-13.433 -2997.607 2623.955)" stroke-width="5" opacity=".11" style="-webkit-tap-highlight-color:rgba(0,0,0,0)"/><ellipse cx="216" cy="220" rx="133" ry="187.53" fill="#fb5b6d" stroke="#c6924c" transform="rotate(171.931 216.003 220.002)" stroke-width="5" opacity=".11" style="-webkit-tap-highlight-color:rgba(0,0,0,0)"/><ellipse cx="341" cy="210" rx="131" ry="184.71" fill="#fb5b6d" stroke="#c6924c" transform="rotate(177.312 340.997 210.005)" stroke-width="5" opacity=".11" style="-webkit-tap-highlight-color:rgba(0,0,0,0)"/><ellipse cx="366" cy="135" rx="81" ry="114.21" fill="#fb5b6d" stroke="#c6924c" transform="rotate(-177.312 366.002 134.995)" stroke-width="5" opacity=".11" style="-webkit-tap-highlight-color:rgba(0,0,0,0)"/><ellipse cx="214" cy="266" rx="125" ry="176.25" fill="#fb5b6d" stroke="#c6924c" transform="rotate(-171.931 214.002 266.003)" stroke-width="5" opacity=".11" style="-webkit-tap-highlight-color:rgba(0,0,0,0)"/><ellipse cx="252" cy="338" rx="75" ry="105.75" fill="#fb5b6d" stroke="#c6924c" transform="scale(-1) rotate(13.433 2870.22 -2139.937)" stroke-width="5" opacity=".11" style="-webkit-tap-highlight-color:rgba(0,0,0,0)"/><ellipse cx="358" cy="319" rx="128" ry="180.48" fill="#fb5b6d" stroke="#c6924c" transform="rotate(-161.191 358.008 318.995)" stroke-width="5" opacity=".11" style="-webkit-tap-highlight-color:rgba(0,0,0,0)"/><ellipse cx="208" cy="295" rx="117" ry="164.97" fill="#fb5b6d" stroke="#c6924c" transform="scale(-1) rotate(24.179 1377.247 -971.072)" stroke-width="5" opacity=".11" style="-webkit-tap-highlight-color:rgba(0,0,0,0)"/><ellipse cx="247" cy="319" rx="115" ry="162.15" fill="#fb5b6d" stroke="#c6924c" transform="rotate(-150.447 246.999 319.004)" stroke-width="5" opacity=".11" style="-webkit-tap-highlight-color:rgba(0,0,0,0)"/><ellipse cx="234" cy="312" rx="142" ry="200.22" fill="#fb5b6d" stroke="#c6924c" transform="rotate(-145.075 233.999 312.001)" stroke-width="5" opacity=".11" style="-webkit-tap-highlight-color:rgba(0,0,0,0)"/><ellipse cx="431" cy="248" rx="145" ry="204.45" fill="#fb5b6d" stroke="#c6924c" transform="scale(-1) rotate(40.299 675.85 -1174.58)" stroke-width="5" opacity=".11" style="-webkit-tap-highlight-color:rgba(0,0,0,0)"/><ellipse cx="304" cy="290" rx="78" ry="109.98" fill="#fb5b6d" stroke="#c6924c" transform="rotate(-134.331 303.99 290.008)" stroke-width="5" opacity=".11" style="-webkit-tap-highlight-color:rgba(0,0,0,0)"/><ellipse cx="387" cy="327" rx="129" ry="181.89" fill="#fb5b6d" stroke="#c6924c" transform="scale(-1) rotate(51.044 684.922 -810.584)" stroke-width="5" opacity=".11" style="-webkit-tap-highlight-color:rgba(0,0,0,0)"/><ellipse cx="419" cy="213" rx="123" ry="173.43" fill="#fb5b6d" stroke="#c6924c" transform="rotate(-123.58 419.008 212.998)" stroke-width="5" opacity=".11" style="-webkit-tap-highlight-color:rgba(0,0,0,0)"/><ellipse cx="308" cy="132" rx="80" ry="112.8" fill="#fb5b6d" stroke="#c6924c" transform="rotate(-118.21 307.999 132.006)" stroke-width="5" opacity=".11" style="-webkit-tap-highlight-color:rgba(0,0,0,0)"/><ellipse cx="328" cy="151" rx="78" ry="109.98" fill="#fb5b6d" stroke="#c6924c" transform="rotate(-112.836 327.999 151.005)" stroke-width="5" opacity=".11" style="-webkit-tap-highlight-color:rgba(0,0,0,0)"/><ellipse cx="299" cy="149" rx="109" ry="153.69" fill="#fb5b6d" stroke="#c6924c" transform="rotate(-107.464 298.997 149.003)" stroke-width="5" opacity=".11" style="-webkit-tap-highlight-color:rgba(0,0,0,0)"/><ellipse cx="267" cy="185" rx="113" ry="159.33" fill="#fb5b6d" stroke="#c6924c" transform="scale(-1) rotate(77.912 228.817 -330.252)" stroke-width="5" opacity=".11" style="-webkit-tap-highlight-color:rgba(0,0,0,0)"/><ellipse cx="412" cy="137" rx="71" ry="100.11" fill="#fb5b6d" stroke="#c6924c" transform="scale(-1) rotate(83.281 154.1 -463.39)" stroke-width="5" opacity=".11" style="-webkit-tap-highlight-color:rgba(0,0,0,0)"/><ellipse cx="355" cy="328" rx="128" ry="180.48" fill="#fb5b6d" stroke="#c6924c" transform="scale(-1) rotate(88.659 335.775 -363.43)" stroke-width="5" opacity=".11" style="-webkit-tap-highlight-color:rgba(0,0,0,0)"/><ellipse cx="422" cy="220" rx="56" ry="78.96" fill="#fb5b6d" stroke="#c6924c" transform="rotate(-85.969 422.02 220.003)" stroke-width="5" opacity=".11" style="-webkit-tap-highlight-color:rgba(0,0,0,0)"/><ellipse cx="301" cy="180" rx="90" ry="126.9" fill="#fb5b6d" stroke="#c6924c" transform="rotate(-80.596 300.992 179.992)" stroke-width="5" opacity=".11" style="-webkit-tap-highlight-color:rgba(0,0,0,0)"/><ellipse cx="234" cy="259" rx="88" ry="124.08" fill="#fb5b6d" stroke="#c6924c" transform="rotate(-75.226 234 259.009)" stroke-width="5" opacity=".11" style="-webkit-tap-highlight-color:rgba(0,0,0,0)"/><ellipse cx="284" cy="202" rx="109" ry="153.69" fill="#fb5b6d" stroke="#c6924c" transform="rotate(-69.849 284.01 201.996)" stroke-width="5" opacity=".11" style="-webkit-tap-highlight-color:rgba(0,0,0,0)"/><ellipse cx="342" cy="245" rx="90" ry="126.9" fill="#fb5b6d" stroke="#c6924c" transform="rotate(-64.475 342.016 245)" stroke-width="5" opacity=".11" style="-webkit-tap-highlight-color:rgba(0,0,0,0)"/><ellipse cx="405" cy="326" rx="78" ry="109.98" fill="#fb5b6d" stroke="#c6924c" transform="rotate(-59.103 405.014 325.997)" stroke-width="5" opacity=".11" style="-webkit-tap-highlight-color:rgba(0,0,0,0)"/><ellipse cx="212" cy="210" rx="60" ry="84.6" fill="#fb5b6d" stroke="#c6924c" transform="rotate(-53.732 211.986 209.988)" stroke-width="5" opacity=".11" style="-webkit-tap-highlight-color:rgba(0,0,0,0)"/><ellipse cx="404" cy="278" rx="136" ry="191.76" fill="#fb5b6d" stroke="#c6924c" transform="rotate(-48.356 404.019 277.998)" stroke-width="5" opacity=".11" style="-webkit-tap-highlight-color:rgba(0,0,0,0)"/><ellipse cx="385" cy="133" rx="95" ry="133.95" fill="#fb5b6d" stroke="#c6924c" transform="rotate(-42.986 385.002 133.004)" stroke-width="5" opacity=".11" style="-webkit-tap-highlight-color:rgba(0,0,0,0)"/><ellipse cx="199" cy="269" rx="101" ry="142.41" fill="#fb5b6d" stroke="#c6924c" transform="rotate(-37.608 199.02 269)" stroke-width="5" opacity=".11" style="-webkit-tap-highlight-color:rgba(0,0,0,0)"/><ellipse cx="287" cy="144" rx="95" ry="133.95" fill="#fb5b6d" stroke="#c6924c" transform="rotate(-32.237 287.03 144.01)" stroke-width="5" opacity=".11" style="-webkit-tap-highlight-color:rgba(0,0,0,0)"/><ellipse cx="382" cy="232" rx="136" ry="191.76" fill="#fb5b6d" stroke="#c6924c" transform="rotate(-26.865 382.003 231.998)" stroke-width="5" opacity=".11" style="-webkit-tap-highlight-color:rgba(0,0,0,0)"/><ellipse cx="429" cy="329" rx="123" ry="173.43" fill="#fb5b6d" stroke="#c6924c" transform="rotate(-21.493 428.976 328.983)" stroke-width="5" opacity=".11" style="-webkit-tap-highlight-color:rgba(0,0,0,0)"/><ellipse cx="241" cy="340" rx="126" ry="177.66" fill="#fb5b6d" stroke="#c6924c" transform="rotate(-16.116 241.047 340.043)" stroke-width="5" opacity=".11" style="-webkit-tap-highlight-color:rgba(0,0,0,0)"/><ellipse cx="384" cy="292" rx="88" ry="124.08" fill="#fb5b6d" stroke="#c6924c" transform="rotate(-10.748 383.912 291.943)" stroke-width="5" opacity=".11" style="-webkit-tap-highlight-color:rgba(0,0,0,0)"/><ellipse cx="206" cy="266" rx="139" ry="195.99" fill="#fb5b6d" stroke="#c6924c" transform="rotate(-5.377 206.068 266.135)" stroke-width="5" opacity=".11" style="-webkit-tap-highlight-color:rgba(0,0,0,0)"/></svg>