<svg height="480" width="640" xmlns="http://www.w3.org/2000/svg" style="position:relative;top:-.3125px" overflow="hidden"><rect width="640" height="480" rx="0" ry="0" fill="#9f4052" style="-webkit-tap-highlight-color:rgba(0,0,0,0)"/><ellipse cx="247" cy="240" rx="98" ry="138.18" fill="#2ca3db" stroke="#5f0855" stroke-width="13" opacity=".22" style="-webkit-tap-highlight-color:rgba(0,0,0,0)"/><ellipse cx="411" cy="257" rx="144" ry="203.04" fill="#2ca3db" stroke="#5f0855" transform="rotate(9.23 411.027 257.022)" stroke-width="13" opacity=".22" style="-webkit-tap-highlight-color:rgba(0,0,0,0)"/><ellipse cx="394" cy="253" rx="65" ry="91.65" fill="#2ca3db" stroke="#5f0855" transform="rotate(18.468 393.978 252.932)" stroke-width="13" opacity=".22" style="-webkit-tap-highlight-color:rgba(0,0,0,0)"/><ellipse cx="277" cy="231" rx="82" ry="115.62" fill="#2ca3db" stroke="#5f0855" transform="rotate(27.69 277.01 231.018)" stroke-width="13" opacity=".22" style="-webkit-tap-highlight-color:rgba(0,0,0,0)"/><ellipse cx="277" cy="244" rx="107" ry="150.87" fill="#2ca3db" stroke="#5f0855" transform="rotate(36.923 277.019 244.019)" stroke-width="13" opacity=".22" style="-webkit-tap-highlight-color:rgba(0,0,0,0)"/><ellipse cx="297" cy="246" rx="77" ry="108.57" fill="#2ca3db" stroke="#5f0855" transform="rotate(46.156 297.005 245.989)" stroke-width="13" opacity=".22" style="-webkit-tap-highlight-color:rgba(0,0,0,0)"/><ellipse cx="393" cy="232" rx="102" ry="143.82" fill="#2ca3db" stroke="#5f0855" transform="rotate(55.383 392.992 232)" stroke-width="13" opacity=".22" style="-webkit-tap-highlight-color:rgba(0,0,0,0)"/><ellipse cx="358" cy="224" rx="33" ry="46.53" fill="#2ca3db" stroke="#5f0855" transform="rotate(64.616 357.98 223.984)" stroke-width="13" opacity=".22" style="-webkit-tap-highlight-color:rgba(0,0,0,0)"/><ellipse cx="294" cy="254" rx="118" ry="166.38" fill="#2ca3db" stroke="#5f0855" transform="rotate(73.847 294.006 253.995)" stroke-width="13" opacity=".22" style="-webkit-tap-highlight-color:rgba(0,0,0,0)"/><ellipse cx="329" cy="243" rx="98" ry="138.18" fill="#2ca3db" stroke="#5f0855" transform="rotate(83.079 329.002 242.989)" stroke-width="13" opacity=".22" style="-webkit-tap-highlight-color:rgba(0,0,0,0)"/><ellipse cx="266" cy="223" rx="160" ry="225.6" fill="#2ca3db" stroke="#5f0855" transform="rotate(92.31 265.997 222.992)" stroke-width="13" opacity=".22" style="-webkit-tap-highlight-color:rgba(0,0,0,0)"/><ellipse cx="294" cy="227" rx="37" ry="52.17" fill="#2ca3db" stroke="#5f0855" transform="rotate(101.537 294 227.007)" stroke-width="13" opacity=".22" style="-webkit-tap-highlight-color:rgba(0,0,0,0)"/><ellipse cx="373" cy="239" rx="83" ry="117.03" fill="#2ca3db" stroke="#5f0855" transform="rotate(110.769 373.005 239)" stroke-width="13" opacity=".22" style="-webkit-tap-highlight-color:rgba(0,0,0,0)"/><ellipse cx="308" cy="235" rx="145" ry="204.45" fill="#2ca3db" stroke="#5f0855" transform="rotate(120 308.005 234.998)" stroke-width="13" opacity=".22" style="-webkit-tap-highlight-color:rgba(0,0,0,0)"/><ellipse cx="388" cy="237" rx="130" ry="183.3" fill="#2ca3db" stroke="#5f0855" transform="scale(-1) rotate(-50.771 -499.48 817.684)" stroke-width="13" opacity=".22" style="-webkit-tap-highlight-color:rgba(0,0,0,0)"/><ellipse cx="320" cy="242" rx="129" ry="181.89" fill="#2ca3db" stroke="#5f0855" transform="rotate(138.461 320.005 242)" stroke-width="13" opacity=".22" style="-webkit-tap-highlight-color:rgba(0,0,0,0)"/><ellipse cx="227" cy="252" rx="96" ry="135.36" fill="#2ca3db" stroke="#5f0855" transform="scale(-1) rotate(-32.309 -869.956 783.632)" stroke-width="13" opacity=".22" style="-webkit-tap-highlight-color:rgba(0,0,0,0)"/><ellipse cx="220" cy="235" rx="103" ry="145.23" fill="#2ca3db" stroke="#5f0855" transform="rotate(156.93 219.994 235)" stroke-width="13" opacity=".22" style="-webkit-tap-highlight-color:rgba(0,0,0,0)"/><ellipse cx="305" cy="221" rx="33" ry="46.53" fill="#2ca3db" stroke="#5f0855" transform="scale(-1) rotate(-13.846 -1820.212 2512.07)" stroke-width="13" opacity=".22" style="-webkit-tap-highlight-color:rgba(0,0,0,0)"/><ellipse cx="428" cy="248" rx="136" ry="191.76" fill="#2ca3db" stroke="#5f0855" transform="scale(-1) rotate(-4.617 -6151.655 10616.201)" stroke-width="13" opacity=".22" style="-webkit-tap-highlight-color:rgba(0,0,0,0)"/><ellipse cx="341" cy="238" rx="129" ry="181.89" fill="#2ca3db" stroke="#5f0855" transform="scale(-1) rotate(4.617 5903.326 -8458.397)" stroke-width="13" opacity=".22" style="-webkit-tap-highlight-color:rgba(0,0,0,0)"/><ellipse cx="237" cy="256" rx="155" ry="218.55" fill="#2ca3db" stroke="#5f0855" transform="scale(-1) rotate(13.846 2108.493 -1951.993)" stroke-width="13" opacity=".22" style="-webkit-tap-highlight-color:rgba(0,0,0,0)"/><ellipse cx="230" cy="254" rx="78" ry="109.98" fill="#2ca3db" stroke="#5f0855" transform="rotate(-156.93 230 253.993)" stroke-width="13" opacity=".22" style="-webkit-tap-highlight-color:rgba(0,0,0,0)"/><ellipse cx="287" cy="250" rx="128" ry="180.48" fill="#2ca3db" stroke="#5f0855" transform="scale(-1) rotate(32.309 863.03 -990.782)" stroke-width="13" opacity=".22" style="-webkit-tap-highlight-color:rgba(0,0,0,0)"/><ellipse cx="415" cy="254" rx="66" ry="93.06" fill="#2ca3db" stroke="#5f0855" transform="rotate(-138.461 415.002 254.006)" stroke-width="13" opacity=".22" style="-webkit-tap-highlight-color:rgba(0,0,0,0)"/><ellipse cx="412" cy="233" rx="107" ry="150.87" fill="#2ca3db" stroke="#5f0855" transform="scale(-1) rotate(50.771 491.023 -868.278)" stroke-width="13" opacity=".22" style="-webkit-tap-highlight-color:rgba(0,0,0,0)"/><ellipse cx="248" cy="252" rx="143" ry="201.63" fill="#2ca3db" stroke="#5f0855" transform="rotate(-120 247.999 252.005)" stroke-width="13" opacity=".22" style="-webkit-tap-highlight-color:rgba(0,0,0,0)"/><ellipse cx="374" cy="255" rx="138" ry="194.58" fill="#2ca3db" stroke="#5f0855" transform="rotate(-110.769 374.001 255.004)" stroke-width="13" opacity=".22" style="-webkit-tap-highlight-color:rgba(0,0,0,0)"/><ellipse cx="303" cy="250" rx="163" ry="229.83" fill="#2ca3db" stroke="#5f0855" transform="rotate(-101.537 303.007 249.998)" stroke-width="13" opacity=".22" style="-webkit-tap-highlight-color:rgba(0,0,0,0)"/><ellipse cx="383" cy="242" rx="106" ry="149.46" fill="#2ca3db" stroke="#5f0855" transform="rotate(-92.31 382.989 241.999)" stroke-width="13" opacity=".22" style="-webkit-tap-highlight-color:rgba(0,0,0,0)"/><ellipse cx="318" cy="249" rx="117" ry="164.97" fill="#2ca3db" stroke="#5f0855" transform="rotate(-83.079 317.99 249.005)" stroke-width="13" opacity=".22" style="-webkit-tap-highlight-color:rgba(0,0,0,0)"/><ellipse cx="256" cy="256" rx="68" ry="95.88" fill="#2ca3db" stroke="#5f0855" transform="rotate(-73.847 255.996 256.006)" stroke-width="13" opacity=".22" style="-webkit-tap-highlight-color:rgba(0,0,0,0)"/><ellipse cx="299" cy="259" rx="113" ry="159.33" fill="#2ca3db" stroke="#5f0855" transform="rotate(-64.616 298.98 258.987)" stroke-width="13" opacity=".22" style="-webkit-tap-highlight-color:rgba(0,0,0,0)"/><ellipse cx="328" cy="225" rx="43" ry="60.63" fill="#2ca3db" stroke="#5f0855" transform="rotate(-55.383 327.997 224.993)" stroke-width="13" opacity=".22" style="-webkit-tap-highlight-color:rgba(0,0,0,0)"/><ellipse cx="282" cy="231" rx="42" ry="59.22" fill="#2ca3db" stroke="#5f0855" transform="rotate(-46.156 281.99 231.006)" stroke-width="13" opacity=".22" style="-webkit-tap-highlight-color:rgba(0,0,0,0)"/><ellipse cx="388" cy="254" rx="156" ry="219.96" fill="#2ca3db" stroke="#5f0855" transform="rotate(-36.923 388.029 254.017)" stroke-width="13" opacity=".22" style="-webkit-tap-highlight-color:rgba(0,0,0,0)"/><ellipse cx="387" cy="223" rx="161" ry="227.01" fill="#2ca3db" stroke="#5f0855" transform="rotate(-27.69 387.026 223.004)" stroke-width="13" opacity=".22" style="-webkit-tap-highlight-color:rgba(0,0,0,0)"/><ellipse cx="332" cy="250" rx="39" ry="54.99" fill="#2ca3db" stroke="#5f0855" transform="rotate(-18.468 331.937 250.003)" stroke-width="13" opacity=".22" style="-webkit-tap-highlight-color:rgba(0,0,0,0)"/><ellipse cx="402" cy="222" rx="85" ry="119.85" fill="#2ca3db" stroke="#5f0855" transform="rotate(-9.23 402.03 222.012)" stroke-width="13" opacity=".22" style="-webkit-tap-highlight-color:rgba(0,0,0,0)"/></svg>