<svg height="480" width="640" xmlns="http://www.w3.org/2000/svg" style="position:relative;top:-.3125px" overflow="hidden"><rect width="640" height="480" rx="0" ry="0" fill="#f5f5f5" style="-webkit-tap-highlight-color:rgba(0,0,0,0)"/><ellipse cx="320" cy="240" rx="126" ry="177.66" fill="none" stroke="#555" opacity=".5" style="-webkit-tap-highlight-color:rgba(0,0,0,0)"/><ellipse cx="320" cy="240" rx="120" ry="169.2" fill="none" stroke="#555" transform="rotate(11.246 319.968 240.015)" opacity=".5" style="-webkit-tap-highlight-color:rgba(0,0,0,0)"/><ellipse cx="320" cy="240" rx="127" ry="179.07" fill="none" stroke="#555" transform="rotate(22.5 319.987 239.988)" opacity=".5" style="-webkit-tap-highlight-color:rgba(0,0,0,0)"/><ellipse cx="320" cy="240" rx="129" ry="181.89" fill="none" stroke="#555" transform="rotate(33.75 319.983 239.986)" opacity=".5" style="-webkit-tap-highlight-color:rgba(0,0,0,0)"/><ellipse cx="320" cy="240" rx="130" ry="183.3" fill="none" stroke="#555" transform="rotate(45.001 320.004 239.997)" opacity=".5" style="-webkit-tap-highlight-color:rgba(0,0,0,0)"/><ellipse cx="320" cy="240" rx="130" ry="183.3" fill="none" stroke="#555" transform="rotate(56.25 319.988 239.993)" opacity=".5" style="-webkit-tap-highlight-color:rgba(0,0,0,0)"/><ellipse cx="320" cy="240" rx="123" ry="173.43" fill="none" stroke="#555" transform="rotate(67.5 319.993 239.996)" opacity=".5" style="-webkit-tap-highlight-color:rgba(0,0,0,0)"/><ellipse cx="320" cy="240" rx="122" ry="172.02" fill="none" stroke="#555" transform="rotate(78.749 319.996 240.003)" opacity=".5" style="-webkit-tap-highlight-color:rgba(0,0,0,0)"/><ellipse cx="320" cy="240" rx="122" ry="172.02" fill="none" stroke="#555" transform="rotate(90 320 240)" opacity=".5" style="-webkit-tap-highlight-color:rgba(0,0,0,0)"/><ellipse cx="320" cy="240" rx="127" ry="179.07" fill="none" stroke="#555" transform="rotate(101.251 319.996 239.998)" opacity=".5" style="-webkit-tap-highlight-color:rgba(0,0,0,0)"/><ellipse cx="320" cy="240" rx="122" ry="172.02" fill="none" stroke="#555" transform="scale(-1) rotate(-67.5 -359.177 478.906)" opacity=".5" style="-webkit-tap-highlight-color:rgba(0,0,0,0)"/><ellipse cx="320" cy="240" rx="124" ry="174.84" fill="none" stroke="#555" transform="scale(-1) rotate(-56.25 -448.99 598.659)" opacity=".5" style="-webkit-tap-highlight-color:rgba(0,0,0,0)"/><ellipse cx="320" cy="240" rx="129" ry="181.89" fill="none" stroke="#555" transform="rotate(134.999 320.002 240)" opacity=".5" style="-webkit-tap-highlight-color:rgba(0,0,0,0)"/><ellipse cx="320" cy="240" rx="122" ry="172.02" fill="none" stroke="#555" transform="scale(-1) rotate(-33.75 -791.135 1054.838)" opacity=".5" style="-webkit-tap-highlight-color:rgba(0,0,0,0)"/><ellipse cx="320" cy="240" rx="129" ry="181.89" fill="none" stroke="#555" transform="scale(-1) rotate(-22.5 -1206.514 1608.673)" opacity=".5" style="-webkit-tap-highlight-color:rgba(0,0,0,0)"/><ellipse cx="320" cy="240" rx="123" ry="173.43" fill="none" stroke="#555" transform="rotate(168.754 319.997 240)" opacity=".5" style="-webkit-tap-highlight-color:rgba(0,0,0,0)"/><ellipse cx="320" cy="240" rx="123" ry="173.43" fill="none" stroke="#555" transform="rotate(180 320 240)" opacity=".5" style="-webkit-tap-highlight-color:rgba(0,0,0,0)"/><ellipse cx="320" cy="240" rx="123" ry="173.43" fill="none" stroke="#555" transform="rotate(-168.754 319.998 239.997)" opacity=".5" style="-webkit-tap-highlight-color:rgba(0,0,0,0)"/><ellipse cx="320" cy="240" rx="129" ry="181.89" fill="none" stroke="#555" transform="scale(-1) rotate(22.5 1206.502 -1608.682)" opacity=".5" style="-webkit-tap-highlight-color:rgba(0,0,0,0)"/><ellipse cx="320" cy="240" rx="129" ry="181.89" fill="none" stroke="#555" transform="scale(-1) rotate(33.75 791.127 -1054.844)" opacity=".5" style="-webkit-tap-highlight-color:rgba(0,0,0,0)"/><ellipse cx="320" cy="240" rx="130" ry="183.3" fill="none" stroke="#555" transform="rotate(-134.999 320.001 240.002)" opacity=".5" style="-webkit-tap-highlight-color:rgba(0,0,0,0)"/><ellipse cx="320" cy="240" rx="125" ry="176.25" fill="none" stroke="#555" transform="scale(-1) rotate(56.25 448.995 -598.656)" opacity=".5" style="-webkit-tap-highlight-color:rgba(0,0,0,0)"/><ellipse cx="320" cy="240" rx="129" ry="181.89" fill="none" stroke="#555" transform="scale(-1) rotate(67.5 359.18 -478.903)" opacity=".5" style="-webkit-tap-highlight-color:rgba(0,0,0,0)"/><ellipse cx="320" cy="240" rx="124" ry="174.84" fill="none" stroke="#555" transform="rotate(-101.251 319.997 239.996)" opacity=".5" style="-webkit-tap-highlight-color:rgba(0,0,0,0)"/><ellipse cx="320" cy="240" rx="125" ry="176.25" fill="none" stroke="#555" transform="rotate(-90 320 240)" opacity=".5" style="-webkit-tap-highlight-color:rgba(0,0,0,0)"/><ellipse cx="320" cy="240" rx="122" ry="172.02" fill="none" stroke="#555" transform="rotate(-78.749 320.002 239.995)" opacity=".5" style="-webkit-tap-highlight-color:rgba(0,0,0,0)"/><ellipse cx="320" cy="240" rx="123" ry="173.43" fill="none" stroke="#555" transform="rotate(-67.5 319.995 239.994)" opacity=".5" style="-webkit-tap-highlight-color:rgba(0,0,0,0)"/><ellipse cx="320" cy="240" rx="121" ry="170.61" fill="none" stroke="#555" transform="rotate(-56.25 319.99 239.99)" opacity=".5" style="-webkit-tap-highlight-color:rgba(0,0,0,0)"/><ellipse cx="320" cy="240" rx="122" ry="172.02" fill="none" stroke="#555" transform="rotate(-45.001 319.999 240.005)" opacity=".5" style="-webkit-tap-highlight-color:rgba(0,0,0,0)"/><ellipse cx="320" cy="240" rx="122" ry="172.02" fill="none" stroke="#555" transform="rotate(-33.75 319.982 239.988)" opacity=".5" style="-webkit-tap-highlight-color:rgba(0,0,0,0)"/><ellipse cx="320" cy="240" rx="122" ry="172.02" fill="none" stroke="#555" transform="rotate(-22.5 319.985 239.99)" opacity=".5" style="-webkit-tap-highlight-color:rgba(0,0,0,0)"/><ellipse cx="320" cy="240" rx="129" ry="181.89" fill="none" stroke="#555" transform="rotate(-11.246 320.006 239.965)" opacity=".5" style="-webkit-tap-highlight-color:rgba(0,0,0,0)"/></svg>