<svg height="480" width="640" xmlns="http://www.w3.org/2000/svg" style="position:relative;top:-.3125px" overflow="hidden"><rect width="640" height="480" rx="0" ry="0" fill="#993309" style="-webkit-tap-highlight-color:rgba(0,0,0,0)"/><ellipse cx="307" cy="240" rx="73" ry="102.93" fill="none" stroke="#e14930" stroke-width="6" opacity=".11" style="-webkit-tap-highlight-color:rgba(0,0,0,0)"/><ellipse cx="536" cy="224" rx="74" ry="104.34" fill="none" stroke="#e14930" transform="rotate(6.927 536.18 224.018)" stroke-width="6" opacity=".11" style="-webkit-tap-highlight-color:rgba(0,0,0,0)"/><ellipse cx="400" cy="235" rx="75" ry="105.75" fill="none" stroke="#e14930" transform="rotate(13.846 400.026 235.017)" stroke-width="6" opacity=".11" style="-webkit-tap-highlight-color:rgba(0,0,0,0)"/><ellipse cx="585" cy="158" rx="68" ry="95.88" fill="none" stroke="#e14930" transform="rotate(20.772 585.01 157.974)" stroke-width="6" opacity=".11" style="-webkit-tap-highlight-color:rgba(0,0,0,0)"/><ellipse cx="520" cy="373" rx="70" ry="98.7" fill="none" stroke="#e14930" transform="rotate(27.69 520.02 373.031)" stroke-width="6" opacity=".11" style="-webkit-tap-highlight-color:rgba(0,0,0,0)"/><ellipse cx="609" cy="175" rx="70" ry="98.7" fill="none" stroke="#e14930" transform="rotate(34.617 608.962 174.983)" stroke-width="6" opacity=".11" style="-webkit-tap-highlight-color:rgba(0,0,0,0)"/><ellipse cx="130" cy="90" rx="73" ry="102.93" fill="none" stroke="#e14930" transform="rotate(41.539 130.005 89.999)" stroke-width="6" opacity=".11" style="-webkit-tap-highlight-color:rgba(0,0,0,0)"/><ellipse cx="359" cy="128" rx="69" ry="97.29" fill="none" stroke="#e14930" transform="rotate(48.463 359.004 127.989)" stroke-width="6" opacity=".11" style="-webkit-tap-highlight-color:rgba(0,0,0,0)"/><ellipse cx="169" cy="181" rx="71" ry="100.11" fill="none" stroke="#e14930" transform="rotate(55.383 168.996 180.999)" stroke-width="6" opacity=".11" style="-webkit-tap-highlight-color:rgba(0,0,0,0)"/><ellipse cx="403" cy="269" rx="74" ry="104.34" fill="none" stroke="#e14930" transform="rotate(62.31 402.98 268.975)" stroke-width="6" opacity=".11" style="-webkit-tap-highlight-color:rgba(0,0,0,0)"/><ellipse cx="501" cy="159" rx="73" ry="102.93" fill="none" stroke="#e14930" transform="rotate(69.231 501.006 158.996)" stroke-width="6" opacity=".11" style="-webkit-tap-highlight-color:rgba(0,0,0,0)"/><ellipse cx="309" cy="261" rx="75" ry="105.75" fill="none" stroke="#e14930" transform="rotate(76.154 309.013 261.01)" stroke-width="6" opacity=".11" style="-webkit-tap-highlight-color:rgba(0,0,0,0)"/><ellipse cx="34" cy="317" rx="72" ry="101.52" fill="none" stroke="#e14930" transform="rotate(83.079 34.008 316.995)" stroke-width="6" opacity=".11" style="-webkit-tap-highlight-color:rgba(0,0,0,0)"/><ellipse cx="57" cy="338" rx="71" ry="100.11" fill="none" stroke="#e14930" transform="rotate(90 57 338)" stroke-width="6" opacity=".11" style="-webkit-tap-highlight-color:rgba(0,0,0,0)"/><ellipse cx="83" cy="246" rx="70" ry="98.7" fill="none" stroke="#e14930" transform="rotate(96.921 82.999 246.006)" stroke-width="6" opacity=".11" style="-webkit-tap-highlight-color:rgba(0,0,0,0)"/><ellipse cx="591" cy="288" rx="66" ry="93.06" fill="none" stroke="#e14930" transform="scale(-1) rotate(-76.154 -367.622 754.386)" stroke-width="6" opacity=".11" style="-webkit-tap-highlight-color:rgba(0,0,0,0)"/><ellipse cx="428" cy="207" rx="75" ry="105.75" fill="none" stroke="#e14930" transform="rotate(110.769 428.005 206.999)" stroke-width="6" opacity=".11" style="-webkit-tap-highlight-color:rgba(0,0,0,0)"/><ellipse cx="472" cy="334" rx="72" ry="101.52" fill="none" stroke="#e14930" transform="scale(-1) rotate(-62.31 -552.485 780.724)" stroke-width="6" opacity=".11" style="-webkit-tap-highlight-color:rgba(0,0,0,0)"/><ellipse cx="352" cy="225" rx="66" ry="93.06" fill="none" stroke="#e14930" transform="scale(-1) rotate(-55.383 -428.689 670.675)" stroke-width="6" opacity=".11" style="-webkit-tap-highlight-color:rgba(0,0,0,0)"/><ellipse cx="102" cy="348" rx="71" ry="100.11" fill="none" stroke="#e14930" transform="rotate(131.537 102.002 348.005)" stroke-width="6" opacity=".11" style="-webkit-tap-highlight-color:rgba(0,0,0,0)"/><ellipse cx="286" cy="351" rx="69" ry="97.29" fill="none" stroke="#e14930" transform="rotate(138.461 286.006 351)" stroke-width="6" opacity=".11" style="-webkit-tap-highlight-color:rgba(0,0,0,0)"/><ellipse cx="579" cy="281" rx="68" ry="95.88" fill="none" stroke="#e14930" transform="scale(-1) rotate(-34.617 -901.72 1857.946)" stroke-width="6" opacity=".11" style="-webkit-tap-highlight-color:rgba(0,0,0,0)"/><ellipse cx="87" cy="236" rx="73" ry="102.93" fill="none" stroke="#e14930" transform="scale(-1) rotate(-27.69 -957.535 353.012)" stroke-width="6" opacity=".11" style="-webkit-tap-highlight-color:rgba(0,0,0,0)"/><ellipse cx="496" cy="175" rx="74" ry="104.34" fill="none" stroke="#e14930" transform="rotate(159.228 496.004 175.001)" stroke-width="6" opacity=".11" style="-webkit-tap-highlight-color:rgba(0,0,0,0)"/><ellipse cx="368" cy="219" rx="73" ry="102.93" fill="none" stroke="#e14930" transform="scale(-1) rotate(-13.846 -1803.738 3030.957)" stroke-width="6" opacity=".11" style="-webkit-tap-highlight-color:rgba(0,0,0,0)"/><ellipse cx="116" cy="111" rx="75" ry="105.75" fill="none" stroke="#e14930" transform="rotate(173.073 116.003 110.999)" stroke-width="6" opacity=".11" style="-webkit-tap-highlight-color:rgba(0,0,0,0)"/><ellipse cx="31" cy="323" rx="72" ry="101.52" fill="none" stroke="#e14930" transform="rotate(180 31 323)" stroke-width="6" opacity=".11" style="-webkit-tap-highlight-color:rgba(0,0,0,0)"/><ellipse cx="52" cy="221" rx="66" ry="93.06" fill="none" stroke="#e14930" transform="rotate(-173.073 51.996 221.002)" stroke-width="6" opacity=".11" style="-webkit-tap-highlight-color:rgba(0,0,0,0)"/><ellipse cx="412" cy="218" rx="73" ry="102.93" fill="none" stroke="#e14930" transform="scale(-1) rotate(13.846 1795.519 -3393.344)" stroke-width="6" opacity=".11" style="-webkit-tap-highlight-color:rgba(0,0,0,0)"/><ellipse cx="109" cy="120" rx="71" ry="100.11" fill="none" stroke="#e14930" transform="rotate(-159.228 109 120.001)" stroke-width="6" opacity=".11" style="-webkit-tap-highlight-color:rgba(0,0,0,0)"/><ellipse cx="88" cy="246" rx="71" ry="100.11" fill="none" stroke="#e14930" transform="scale(-1) rotate(27.69 998.123 -357.03)" stroke-width="6" opacity=".11" style="-webkit-tap-highlight-color:rgba(0,0,0,0)"/><ellipse cx="218" cy="351" rx="71" ry="100.11" fill="none" stroke="#e14930" transform="scale(-1) rotate(34.617 1126.318 -699.552)" stroke-width="6" opacity=".11" style="-webkit-tap-highlight-color:rgba(0,0,0,0)"/><ellipse cx="322" cy="284" rx="73" ry="102.93" fill="none" stroke="#e14930" transform="rotate(-138.461 322 284.006)" stroke-width="6" opacity=".11" style="-webkit-tap-highlight-color:rgba(0,0,0,0)"/><ellipse cx="345" cy="97" rx="72" ry="101.52" fill="none" stroke="#e14930" transform="rotate(-131.537 345.005 97.001)" stroke-width="6" opacity=".11" style="-webkit-tap-highlight-color:rgba(0,0,0,0)"/><ellipse cx="604" cy="274" rx="75" ry="105.75" fill="none" stroke="#e14930" transform="scale(-1) rotate(55.383 522.067 -1150.804)" stroke-width="6" opacity=".11" style="-webkit-tap-highlight-color:rgba(0,0,0,0)"/><ellipse cx="192" cy="185" rx="71" ry="100.11" fill="none" stroke="#e14930" transform="scale(-1) rotate(62.31 306.002 -317.593)" stroke-width="6" opacity=".11" style="-webkit-tap-highlight-color:rgba(0,0,0,0)"/><ellipse cx="370" cy="247" rx="73" ry="102.93" fill="none" stroke="#e14930" transform="rotate(-110.769 370.001 247.004)" stroke-width="6" opacity=".11" style="-webkit-tap-highlight-color:rgba(0,0,0,0)"/><ellipse cx="574" cy="319" rx="72" ry="101.52" fill="none" stroke="#e14930" transform="scale(-1) rotate(76.154 407.188 -732.688)" stroke-width="6" opacity=".11" style="-webkit-tap-highlight-color:rgba(0,0,0,0)"/><ellipse cx="138" cy="270" rx="75" ry="105.75" fill="none" stroke="#e14930" transform="rotate(-96.921 138.006 270.004)" stroke-width="6" opacity=".11" style="-webkit-tap-highlight-color:rgba(0,0,0,0)"/><ellipse cx="43" cy="142" rx="73" ry="102.93" fill="none" stroke="#e14930" transform="rotate(-90 43 142)" stroke-width="6" opacity=".11" style="-webkit-tap-highlight-color:rgba(0,0,0,0)"/><ellipse cx="33" cy="336" rx="68" ry="95.88" fill="none" stroke="#e14930" transform="rotate(-83.079 32.991 335.996)" stroke-width="6" opacity=".11" style="-webkit-tap-highlight-color:rgba(0,0,0,0)"/><ellipse cx="412" cy="162" rx="68" ry="95.88" fill="none" stroke="#e14930" transform="rotate(-76.154 412.017 162.008)" stroke-width="6" opacity=".11" style="-webkit-tap-highlight-color:rgba(0,0,0,0)"/><ellipse cx="129" cy="149" rx="69" ry="97.29" fill="none" stroke="#e14930" transform="rotate(-69.231 129 149.003)" stroke-width="6" opacity=".11" style="-webkit-tap-highlight-color:rgba(0,0,0,0)"/><ellipse cx="530" cy="139" rx="66" ry="93.06" fill="none" stroke="#e14930" transform="rotate(-62.31 529.964 139.002)" stroke-width="6" opacity=".11" style="-webkit-tap-highlight-color:rgba(0,0,0,0)"/><ellipse cx="203" cy="88" rx="68" ry="95.88" fill="none" stroke="#e14930" transform="rotate(-55.383 202.998 87.997)" stroke-width="6" opacity=".11" style="-webkit-tap-highlight-color:rgba(0,0,0,0)"/><ellipse cx="56" cy="101" rx="67" ry="94.47" fill="none" stroke="#e14930" transform="rotate(-48.463 55.997 101.002)" stroke-width="6" opacity=".11" style="-webkit-tap-highlight-color:rgba(0,0,0,0)"/><ellipse cx="380" cy="221" rx="71" ry="100.11" fill="none" stroke="#e14930" transform="rotate(-41.539 380.004 221.015)" stroke-width="6" opacity=".11" style="-webkit-tap-highlight-color:rgba(0,0,0,0)"/><ellipse cx="423" cy="389" rx="66" ry="93.06" fill="none" stroke="#e14930" transform="rotate(-34.617 422.969 388.979)" stroke-width="6" opacity=".11" style="-webkit-tap-highlight-color:rgba(0,0,0,0)"/><ellipse cx="170" cy="261" rx="66" ry="93.06" fill="none" stroke="#e14930" transform="rotate(-27.69 170.015 261.01)" stroke-width="6" opacity=".11" style="-webkit-tap-highlight-color:rgba(0,0,0,0)"/><ellipse cx="296" cy="286" rx="73" ry="102.93" fill="none" stroke="#e14930" transform="rotate(-20.772 295.988 286.015)" stroke-width="6" opacity=".11" style="-webkit-tap-highlight-color:rgba(0,0,0,0)"/><ellipse cx="155" cy="155" rx="74" ry="104.34" fill="none" stroke="#e14930" transform="rotate(-13.846 155.01 155.01)" stroke-width="6" opacity=".11" style="-webkit-tap-highlight-color:rgba(0,0,0,0)"/><ellipse cx="605" cy="349" rx="74" ry="104.34" fill="none" stroke="#e14930" transform="rotate(-6.927 605.149 349.16)" stroke-width="6" opacity=".11" style="-webkit-tap-highlight-color:rgba(0,0,0,0)"/></svg>