<svg height="480" width="640" xmlns="http://www.w3.org/2000/svg" style="position:relative;top:-.3125px" overflow="hidden"><rect width="640" height="480" rx="0" ry="0" fill="#f171ce" style="-webkit-tap-highlight-color:rgba(0,0,0,0)"/><ellipse cx="114" cy="241" rx="122" ry="172.02" fill="#6cda36" stroke="#40fa79" stroke-width="21" opacity=".12" style="-webkit-tap-highlight-color:rgba(0,0,0,0)"/><ellipse cx="545" cy="246" rx="99" ry="139.59" fill="#6cda36" stroke="#40fa79" transform="rotate(6.102 544.968 245.982)" stroke-width="21" opacity=".12" style="-webkit-tap-highlight-color:rgba(0,0,0,0)"/><ellipse cx="458" cy="230" rx="108" ry="152.28" fill="#6cda36" stroke="#40fa79" transform="rotate(12.204 457.964 229.978)" stroke-width="21" opacity=".12" style="-webkit-tap-highlight-color:rgba(0,0,0,0)"/><ellipse cx="555" cy="240" rx="100" ry="141" fill="#6cda36" stroke="#40fa79" transform="rotate(18.305 554.956 239.993)" stroke-width="21" opacity=".12" style="-webkit-tap-highlight-color:rgba(0,0,0,0)"/><ellipse cx="342" cy="254" rx="116" ry="163.56" fill="#6cda36" stroke="#40fa79" transform="rotate(24.407 342.01 254.007)" stroke-width="21" opacity=".12" style="-webkit-tap-highlight-color:rgba(0,0,0,0)"/><ellipse cx="700" cy="239" rx="55" ry="77.55" fill="#6cda36" stroke="#40fa79" transform="rotate(30.509 699.953 238.982)" stroke-width="21" opacity=".12" style="-webkit-tap-highlight-color:rgba(0,0,0,0)"/><ellipse cx="362" cy="256" rx="84" ry="118.44" fill="#6cda36" stroke="#40fa79" transform="rotate(36.611 361.98 255.985)" stroke-width="21" opacity=".12" style="-webkit-tap-highlight-color:rgba(0,0,0,0)"/><ellipse cx="229" cy="238" rx="102" ry="143.82" fill="#6cda36" stroke="#40fa79" transform="rotate(42.71 229 238.013)" stroke-width="21" opacity=".12" style="-webkit-tap-highlight-color:rgba(0,0,0,0)"/><ellipse cx="564" cy="240" rx="61" ry="86.01" fill="#6cda36" stroke="#40fa79" transform="rotate(48.814 563.978 239.992)" stroke-width="21" opacity=".12" style="-webkit-tap-highlight-color:rgba(0,0,0,0)"/><ellipse cx="543" cy="252" rx="79" ry="111.39" fill="#6cda36" stroke="#40fa79" transform="rotate(54.914 543.002 252.008)" stroke-width="21" opacity=".12" style="-webkit-tap-highlight-color:rgba(0,0,0,0)"/><ellipse cx="419" cy="246" rx="82" ry="115.62" fill="#6cda36" stroke="#40fa79" transform="rotate(61.016 418.982 245.997)" stroke-width="21" opacity=".12" style="-webkit-tap-highlight-color:rgba(0,0,0,0)"/><ellipse cx="-12" cy="240" rx="52" ry="73.32" fill="#6cda36" stroke="#40fa79" transform="rotate(67.12 -11.994 240)" stroke-width="21" opacity=".12" style="-webkit-tap-highlight-color:rgba(0,0,0,0)"/><ellipse cx="577" cy="243" rx="50" ry="70.5" fill="#6cda36" stroke="#40fa79" transform="rotate(73.22 577.012 243.001)" stroke-width="21" opacity=".12" style="-webkit-tap-highlight-color:rgba(0,0,0,0)"/><ellipse cx="292" cy="242" rx="61" ry="86.01" fill="#6cda36" stroke="#40fa79" transform="rotate(79.321 291.995 242.003)" stroke-width="21" opacity=".12" style="-webkit-tap-highlight-color:rgba(0,0,0,0)"/><ellipse cx="665" cy="228" rx="34" ry="47.94" fill="#6cda36" stroke="#40fa79" transform="rotate(85.423 665.009 228.004)" stroke-width="21" opacity=".12" style="-webkit-tap-highlight-color:rgba(0,0,0,0)"/><ellipse cx="21" cy="246" rx="92" ry="129.72" fill="#6cda36" stroke="#40fa79" transform="scale(-1) rotate(-88.476 -252.648 21.565)" stroke-width="21" opacity=".12" style="-webkit-tap-highlight-color:rgba(0,0,0,0)"/><ellipse cx="350" cy="236" rx="45" ry="63.45" fill="#6cda36" stroke="#40fa79" transform="scale(-1) rotate(-82.375 -269.7 399.964)" stroke-width="21" opacity=".12" style="-webkit-tap-highlight-color:rgba(0,0,0,0)"/><ellipse cx="81" cy="248" rx="41" ry="57.81" fill="#6cda36" stroke="#40fa79" transform="scale(-1) rotate(-76.272 -315.89 103.17)" stroke-width="21" opacity=".12" style="-webkit-tap-highlight-color:rgba(0,0,0,0)"/><ellipse cx="229" cy="231" rx="27" ry="38.07" fill="#6cda36" stroke="#40fa79" transform="rotate(109.828 229.001 231.008)" stroke-width="21" opacity=".12" style="-webkit-tap-highlight-color:rgba(0,0,0,0)"/><ellipse cx="105" cy="231" rx="53" ry="74.73" fill="#6cda36" stroke="#40fa79" transform="rotate(115.932 105.002 231.001)" stroke-width="21" opacity=".12" style="-webkit-tap-highlight-color:rgba(0,0,0,0)"/><ellipse cx="528" cy="241" rx="73" ry="102.93" fill="#6cda36" stroke="#40fa79" transform="scale(-1) rotate(-57.966 -435.096 953.241)" stroke-width="21" opacity=".12" style="-webkit-tap-highlight-color:rgba(0,0,0,0)"/><ellipse cx="306" cy="253" rx="29" ry="40.89" fill="#6cda36" stroke="#40fa79" transform="rotate(128.134 305.993 253.01)" stroke-width="21" opacity=".12" style="-webkit-tap-highlight-color:rgba(0,0,0,0)"/><ellipse cx="368" cy="236" rx="55" ry="77.55" fill="#6cda36" stroke="#40fa79" transform="rotate(134.235 367.996 236.012)" stroke-width="21" opacity=".12" style="-webkit-tap-highlight-color:rgba(0,0,0,0)"/><ellipse cx="299" cy="246" rx="73" ry="102.93" fill="#6cda36" stroke="#40fa79" transform="scale(-1) rotate(-39.66 -682.195 829.182)" stroke-width="21" opacity=".12" style="-webkit-tap-highlight-color:rgba(0,0,0,0)"/><ellipse cx="421" cy="240" rx="46" ry="64.86" fill="#6cda36" stroke="#40fa79" transform="rotate(146.439 421.002 240.003)" stroke-width="21" opacity=".12" style="-webkit-tap-highlight-color:rgba(0,0,0,0)"/><ellipse cx="8" cy="226" rx="55" ry="77.55" fill="#6cda36" stroke="#40fa79" transform="scale(-1) rotate(-27.457 -925.054 32.752)" stroke-width="21" opacity=".12" style="-webkit-tap-highlight-color:rgba(0,0,0,0)"/><ellipse cx="64" cy="233" rx="27" ry="38.07" fill="#6cda36" stroke="#40fa79" transform="rotate(158.638 63.996 233.005)" stroke-width="21" opacity=".12" style="-webkit-tap-highlight-color:rgba(0,0,0,0)"/><ellipse cx="397" cy="242" rx="66" ry="93.06" fill="#6cda36" stroke="#40fa79" transform="scale(-1) rotate(-15.254 -1807.183 2964.713)" stroke-width="21" opacity=".12" style="-webkit-tap-highlight-color:rgba(0,0,0,0)"/><ellipse cx="531" cy="245" rx="33" ry="46.53" fill="#6cda36" stroke="#40fa79" transform="scale(-1) rotate(-9.154 -3060.317 6632.5)" stroke-width="21" opacity=".12" style="-webkit-tap-highlight-color:rgba(0,0,0,0)"/><ellipse cx="156" cy="234" rx="115" ry="162.15" fill="#6cda36" stroke="#40fa79" transform="rotate(176.968 156.001 233.996)" stroke-width="21" opacity=".12" style="-webkit-tap-highlight-color:rgba(0,0,0,0)"/><ellipse cx="653" cy="246" rx="89" ry="125.49" fill="#6cda36" stroke="#40fa79" transform="rotate(-176.968 652.992 246.005)" stroke-width="21" opacity=".12" style="-webkit-tap-highlight-color:rgba(0,0,0,0)"/><ellipse cx="653" cy="248" rx="93" ry="131.13" fill="#6cda36" stroke="#40fa79" transform="scale(-1) rotate(9.154 3097.56 -8156.457)" stroke-width="21" opacity=".12" style="-webkit-tap-highlight-color:rgba(0,0,0,0)"/><ellipse cx="682" cy="247" rx="107" ry="150.87" fill="#6cda36" stroke="#40fa79" transform="scale(-1) rotate(15.254 1844.566 -5093.007)" stroke-width="21" opacity=".12" style="-webkit-tap-highlight-color:rgba(0,0,0,0)"/><ellipse cx="-37" cy="243" rx="61" ry="86.01" fill="#6cda36" stroke="#40fa79" transform="rotate(-158.638 -36.995 243.004)" stroke-width="21" opacity=".12" style="-webkit-tap-highlight-color:rgba(0,0,0,0)"/><ellipse cx="564" cy="235" rx="51" ry="71.91" fill="#6cda36" stroke="#40fa79" transform="scale(-1) rotate(27.457 961.91 -2308.534)" stroke-width="21" opacity=".12" style="-webkit-tap-highlight-color:rgba(0,0,0,0)"/><ellipse cx="557" cy="231" rx="27" ry="38.07" fill="#6cda36" stroke="#40fa79" transform="rotate(-146.439 557.004 231)" stroke-width="21" opacity=".12" style="-webkit-tap-highlight-color:rgba(0,0,0,0)"/><ellipse cx="677" cy="248" rx="64" ry="90.24" fill="#6cda36" stroke="#40fa79" transform="scale(-1) rotate(39.66 687.758 -1877.433)" stroke-width="21" opacity=".12" style="-webkit-tap-highlight-color:rgba(0,0,0,0)"/><ellipse cx="435" cy="235" rx="55" ry="77.55" fill="#6cda36" stroke="#40fa79" transform="rotate(-134.235 435.01 234.99)" stroke-width="21" opacity=".12" style="-webkit-tap-highlight-color:rgba(0,0,0,0)"/><ellipse cx="41" cy="235" rx="30" ry="42.3" fill="#6cda36" stroke="#40fa79" transform="rotate(-128.134 41.007 234.999)" stroke-width="21" opacity=".12" style="-webkit-tap-highlight-color:rgba(0,0,0,0)"/><ellipse cx="470" cy="253" rx="122" ry="172.02" fill="#6cda36" stroke="#40fa79" transform="scale(-1) rotate(57.966 456.762 -848.529)" stroke-width="21" opacity=".12" style="-webkit-tap-highlight-color:rgba(0,0,0,0)"/><ellipse cx="534" cy="252" rx="116" ry="163.56" fill="#6cda36" stroke="#40fa79" transform="rotate(-115.932 534.003 252.004)" stroke-width="21" opacity=".12" style="-webkit-tap-highlight-color:rgba(0,0,0,0)"/><ellipse cx="490" cy="248" rx="92" ry="129.72" fill="#6cda36" stroke="#40fa79" transform="rotate(-109.828 490.013 247.998)" stroke-width="21" opacity=".12" style="-webkit-tap-highlight-color:rgba(0,0,0,0)"/><ellipse cx="-21" cy="250" rx="29" ry="40.89" fill="#6cda36" stroke="#40fa79" transform="scale(-1) rotate(76.272 318.437 26.746)" stroke-width="21" opacity=".12" style="-webkit-tap-highlight-color:rgba(0,0,0,0)"/><ellipse cx="538" cy="249" rx="46" ry="64.86" fill="#6cda36" stroke="#40fa79" transform="scale(-1) rotate(82.375 284.54 -614.813)" stroke-width="21" opacity=".12" style="-webkit-tap-highlight-color:rgba(0,0,0,0)"/><ellipse cx="508" cy="230" rx="23" ry="32.43" fill="#6cda36" stroke="#40fa79" transform="scale(-1) rotate(88.476 236.21 -521.73)" stroke-width="21" opacity=".12" style="-webkit-tap-highlight-color:rgba(0,0,0,0)"/><ellipse cx="583" cy="240" rx="78" ry="109.98" fill="#6cda36" stroke="#40fa79" transform="rotate(-85.423 583.008 240.002)" stroke-width="21" opacity=".12" style="-webkit-tap-highlight-color:rgba(0,0,0,0)"/><ellipse cx="313" cy="247" rx="34" ry="47.94" fill="#6cda36" stroke="#40fa79" transform="rotate(-79.321 313.002 246.994)" stroke-width="21" opacity=".12" style="-webkit-tap-highlight-color:rgba(0,0,0,0)"/><ellipse cx="517" cy="226" rx="107" ry="150.87" fill="#6cda36" stroke="#40fa79" transform="rotate(-73.22 517.008 226.007)" stroke-width="21" opacity=".12" style="-webkit-tap-highlight-color:rgba(0,0,0,0)"/><ellipse cx="596" cy="230" rx="27" ry="38.07" fill="#6cda36" stroke="#40fa79" transform="rotate(-67.12 595.993 230.014)" stroke-width="21" opacity=".12" style="-webkit-tap-highlight-color:rgba(0,0,0,0)"/><ellipse cx="173" cy="243" rx="113" ry="159.33" fill="#6cda36" stroke="#40fa79" transform="rotate(-61.016 172.997 242.99)" stroke-width="21" opacity=".12" style="-webkit-tap-highlight-color:rgba(0,0,0,0)"/><ellipse cx="645" cy="238" rx="65" ry="91.65" fill="#6cda36" stroke="#40fa79" transform="rotate(-54.914 645.008 237.995)" stroke-width="21" opacity=".12" style="-webkit-tap-highlight-color:rgba(0,0,0,0)"/><ellipse cx="490" cy="243" rx="83" ry="117.03" fill="#6cda36" stroke="#40fa79" transform="rotate(-48.814 489.982 242.99)" stroke-width="21" opacity=".12" style="-webkit-tap-highlight-color:rgba(0,0,0,0)"/><ellipse cx="443" cy="244" rx="90" ry="126.9" fill="#6cda36" stroke="#40fa79" transform="rotate(-42.71 443.02 243.995)" stroke-width="21" opacity=".12" style="-webkit-tap-highlight-color:rgba(0,0,0,0)"/><ellipse cx="228" cy="255" rx="121" ry="170.61" fill="#6cda36" stroke="#40fa79" transform="rotate(-36.611 227.987 254.986)" stroke-width="21" opacity=".12" style="-webkit-tap-highlight-color:rgba(0,0,0,0)"/><ellipse cx="197" cy="225" rx="60" ry="84.6" fill="#6cda36" stroke="#40fa79" transform="rotate(-30.509 196.986 224.985)" stroke-width="21" opacity=".12" style="-webkit-tap-highlight-color:rgba(0,0,0,0)"/><ellipse cx="480" cy="240" rx="57" ry="80.37" fill="#6cda36" stroke="#40fa79" transform="rotate(-24.407 480.014 240.008)" stroke-width="21" opacity=".12" style="-webkit-tap-highlight-color:rgba(0,0,0,0)"/><ellipse cx="11" cy="235" rx="42" ry="59.22" fill="#6cda36" stroke="#40fa79" transform="rotate(-18.305 11.004 234.983)" stroke-width="21" opacity=".12" style="-webkit-tap-highlight-color:rgba(0,0,0,0)"/><ellipse cx="597" cy="224" rx="109" ry="153.69" fill="#6cda36" stroke="#40fa79" transform="rotate(-12.204 596.949 223.986)" stroke-width="21" opacity=".12" style="-webkit-tap-highlight-color:rgba(0,0,0,0)"/><ellipse cx="721" cy="245" rx="64" ry="90.24" fill="#6cda36" stroke="#40fa79" transform="rotate(-6.102 720.955 244.989)" stroke-width="21" opacity=".12" style="-webkit-tap-highlight-color:rgba(0,0,0,0)"/></svg>