<svg height="480" width="640" xmlns="http://www.w3.org/2000/svg" style="position:relative;top:-.3125px" overflow="hidden"><rect width="640" height="480" rx="0" ry="0" fill="#141414" style="-webkit-tap-highlight-color:rgba(0,0,0,0)"/><path fill="none" stroke="#eee" d="M530 125S325 516 403 255M530 125s58 398-293 51M530 125s-378 277-193 63M530 125s-12 347-346-91M530 125S210 89 148 372M530 125s-96 272-169 342M530 125s42 400-225 263M530 125s-212 58-48 88M530 125s-60 148-430-91M530 125S371 506 88 386M530 125S123 469 652 404M530 125s-128 396 44 302M530 125s-388-29 81 189M530 125S249 436 169 13M530 125s-78-32-411-38M530 125S295 297 106 273M530 125S157 295 180 281M530 125S205 38-49 182M530 125S569 9 649 526M530 125s58 253-84 226M530 125S478 150 304-2M530 125S97 48 1 478M530 125S128 242 181 240M530 125S424-32 462 280M530 125s105 197-168 138M530 125S27 323 395 150M530 125S91 357 427 363M530 125S224 35 663 8M530 125S-31 298 13 461M530 125S356 482 689 36M530 125s145 296-325-63M530 125s-81 401-296 215M530 125S154 437 403 78M530 125S418 351 665-30M530 125s-75-5-195 80M530 125s84-22 103-8M530 125s-346 90-178 94M530 125S-41 198 228 23M530 125S345 3 423 522M530 125S401-23 611 461M530 125S250 226 75 487M530 125S116 398 75 478M530 125s-307 71-203 76M530 125S246 482 363 492M530 125S232-47 278 183M530 125s-327 385 42-26M530 125S152 237 21 13M530 125s-12-25-35 267M530 125S351 231 419 62M530 125S58 160 271 274M530 125s-65 167 47 222M530 125s-322 296-56 60M530 125S40 343 486 231M530 125S38 374 445-17M530 125s83 338-503 99M530 125s-459 151 5 248M530 125S44 511 515-48M530 125s-195 2-246-72M530 125S633-44-46 452M530 125s64 291-3-147M530 125s55 47-195-137M530 125S200 457 47 164M530 125S126 54 626-34M530 125S168 344 261-21M530 125s-227 382-3-27M530 125s-77 358-419 79M530 125s-73-70-14-68M530 125S47 189 671 68M530 125s-128 286 11 333M530 125s-183 322-321-16M530 125s142 63-498 276M530 125s-220 41 38 193M530 125S290 435 81 258M530 125S125 327 647 505M530 125S-8 225 217 200M530 125s112-170 70-62M530 125s-396 39-553 3M530 125S215 5 532 66M530 125S252 153 21 247M530 125s52 283-440 328M530 125S321 7 580 160M530 125S2 472 332 280M530 125s143 390-290 103M530 125s152 130 148 202M530 125s-478 155-29 35M530 125s-66 2-5-124M530 125S377 248 424 513M530 125s-118 248-70 188M530 125S51 297-46 526M530 125S84 163 639 92M530 125S336 277 169 380M530 125s-28 37-137-47M530 125S367 515 641 232M530 125s-472 105-21 70M530 125S196 515 70 361M530 125s-390 160 105 61M530 125S379 471 281 330M530 125s-89 341-60 233M530 125S335 379 19 298M530 125S623 3 561 14M530 125S174 389 293 379M530 125S373 19 647 88M530 125S428-31 445 300M530 125S349 283 23 392M530 125S109 213 679 16M530 125s41 115-107-67M530 125S-3 429 228 183M530 125s-467-4 72-163M530 125S-20 514 279 478M530 125S295 375 128 408M530 125S4 245 443 435M530 125s159 359-59 66M530 125S130 44 89 13M530 125S66 165 594-8M530 125S72 354 63 421M530 125S90 358 673 528M530 125S-26 477 77 72M530 125S181 492 37 47M530 125s104-87-291-42M530 125s-32 263 10 357M530 125s44 205-578 296M530 125S288 262 10 319M530 125S93 480 633 189M530 125S119 502 245 296M530 125S234 495 128 306M530 125S130 255-24 77M530 125S360 248 45 170M530 125S238 317-8-31M530 125s-229-175 15 6M530 125s-83 283-191 338M530 125s-394 35-428 351M530 125s-12 205 144 158M530 125s-31 332-37 6M530 125S256 367 26-39M530 125s8 44 7 330M530 125s-203 45-368 275M530 125S3 65 19 76M530 125s80 350 142 117M530 125S-39 6 643 376M530 125s-75 59-59-72M530 125s-345-8 149 219M530 125S385 346-46 112M530 125s-275-29 24 359M530 125s37-103 101 127M530 125s-416-75 9 117M530 125s21 198-274 397M530 125S669-35-21 198M530 125S301 65 421 464M530 125S505 26 7 63M530 125S357-11 244 341M530 125S38 175 320 519M530 125s-555 185-84 85M530 125s-301 265-378 6M530 125S398 92 370-39M530 125s-23 5-234 228M530 125s156-39-367-88M530 125s109 306-427 184M530 125S152 238 343 442M530 125s126-13-325 159M530 125s-112 73-334 309M530 125s10 308-116 30M530 125S71 85 262 85M530 125s-344 207-379 75M530 125s73 325-408 376M530 125s-569 197-26 212M530 125S268 379 144 422M530 125S233 47 430 505M530 125S262 478 342-42M530 125s-549 43-276 287M530 125s-177 329 127 73M530 125s60 183-178 172M530 125s23 271-444 332M530 125s-90 376-25 336M530 125S237-20 70 337M530 125s18 103-359 364M530 125S287 252 155 446M530 125s13-102-61 141M530 125s54-5-262-3M530 125S351 278 665 512M530 125s45 178 54 311M530 125S192 286-3 102M530 125S49 377 103 516M530 125s-45 32 128 260M530 125S376 358 246 69M530 125S123-10 656 465M530 125s-22 234 27-78M530 125s-538 3 115 276M530 125S47 495 684 423M530 125S60-2 133 358M530 125s109 56 127-92M530 125S-5 132 77 5M530 125S381 50-43 22M530 125S-21 270 322 366M530 125S512-28 6 237M530 125S229 31 425 429M530 125s-90 118-542 28M530 125S179 167 1 445M530 125s84 323-372 142M530 125S77 452 125 315M530 125S214 377 74 439M530 125s-174 59 47 129M530 125S349 174 630-29M530 125s-106 46-204 360M530 125S280 257 135 363M530 125s-154 319 91 244M530 125S638 7 45 101M530 125S94 229 492 479M530 125s-71 59 103 71M530 125S326 25 273 23M530 125s26-42-64 215M530 125s75 401-101 382M530 125s149 7-200 349M530 125S-6 4 199 147M530 125s103 184 126 74M530 125S56 366 20 250M530 125S290 272 325 482M530 125s-147 23 146 85M530 125s-46 398-401 172M530 125s87 300-544 381M530 125s65 375-341 321M530 125S167 521 203 234M530 125S348 15 1-36M530 125s149 164 128 265M530 125s-32 175-372 53M530 125s41-79-266 145M530 125s58 43-414 52M530 125s-59-44-115-75M530 125S397 521 634 416M530 125S106 274-10 247M530 125S196 308 222 73M530 125S149 465-16 334M530 125S-25 526 296 330M530 125S122 421 52 18M530 125S90 244 517-28M530 125s134 242-73-93M530 125S510-28 52 348M530 125S324 367 132 315M530 125s-319-19-152-8M530 125s88 358-385-35M530 125s104-61-65-84M530 125s-381 344-21 22M530 125S472-23 428 400M530 125S123 286 422-46M530 125S342 323 141 505M530 125S226-1 197 475M530 125s-290-62-265 42M530 125s-427-5-489 7M530 125s-386 7-22-75M530 125S420 510 252 309M530 125s-547 41-300 166M530 125S287 181-2 63M530 125S86 23 647 195M530 125s117-42-270-32M530 125s-295 389-392 15M530 125S314 350 633 74M530 125S49 320 509-28M530 125s137 44-379 211M530 125s23 105-98 171M530 125s-24 58-308 40M530 125S300 277-22 185M530 125S344 257 638 471M530 125s-8-94-271 87M530 125S29 500 354 388M530 125S246 11 480 346M530 125s25 334-363 388M530 125S358 16 308 349M530 125s-247-81-36 238M530 125s-272 100-37 192M530 125s-315 54-299 143M530 125S38 303 639-9M530 125s-547 298-75 397M530 125s-575 403-394 16M530 125s-8-29-192 363M530 125S441 518-30 389M530 125S460-19 91 339M530 125s-207-67 62 332M530 125S180 359 637 432M530 125S496 251 105-16M530 125s-194 32-86 284M530 125S-7 76 684 449M530 125S631-27 640 382M530 125s-148 29-146 75M530 125S323 479 275 505M530 125s112 338-149 112M530 125S343 485 339 383M530 125s-155 211-13 143M530 125S183 229 67 530M530 125s-90 115 77 199M530 125s83 57-57-19M530 125s87 134 16 165M530 125S402 347 132-2M530 125S8 142 379-48M530 125S442 283 37 291M530 125S402 263 272 66M530 125S646 372 100-1M530 125S-14 420 631 457M530 125s-105 92-5 265M530 125s-142 12-336 305M530 125s43 86 12-26M530 125s23 92-250-7" opacity=".4" style="-webkit-tap-highlight-color:rgba(0,0,0,0)"/></svg>