<svg height="480" version="1.1" width="640" xmlns="http://www.w3.org/2000/svg" style="overflow: hidden; position: relative; top: -0.3125px;"><desc style="-webkit-tap-highlight-color: rgba(0, 0, 0, 0);">Created with Raphaël 2.0.1</desc><defs style="-webkit-tap-highlight-color: rgba(0, 0, 0, 0);"></defs><rect x="0" y="0" width="640" height="480" r="0" rx="0" ry="0" fill="#47bb5b" stroke="none" style="-webkit-tap-highlight-color: rgba(0, 0, 0, 0);"></rect><ellipse cx="254" cy="206" rx="111" ry="156.51" fill="#fb5b6d" stroke="#c6924c" transform="matrix(1,0,0,1,0,0)" stroke-width="5" opacity="0.11" style="-webkit-tap-highlight-color: rgba(0, 0, 0, 0); opacity: 0.11;"></ellipse><ellipse cx="334" cy="204" rx="133" ry="187.53" fill="#fb5b6d" stroke="#c6924c" transform="matrix(0.9956,0.0936,-0.0936,0.9956,20.5705,-30.3799)" stroke-width="5" opacity="0.11" style="-webkit-tap-highlight-color: rgba(0, 0, 0, 0); opacity: 0.11;"></ellipse><ellipse cx="313" cy="205" rx="91" ry="128.31" fill="#fb5b6d" stroke="#c6924c" transform="matrix(0.9825,0.1865,-0.1865,0.9825,43.7135,-54.7668)" stroke-width="5" opacity="0.11" style="-webkit-tap-highlight-color: rgba(0, 0, 0, 0); opacity: 0.11;"></ellipse><ellipse cx="239" cy="348" rx="134" ry="188.94" fill="#fb5b6d" stroke="#c6924c" transform="matrix(0.9607,0.2776,-0.2776,0.9607,106.015,-52.6744)" stroke-width="5" opacity="0.11" style="-webkit-tap-highlight-color: rgba(0, 0, 0, 0); opacity: 0.11;"></ellipse><ellipse cx="386" cy="329" rx="122" ry="172.01999999999998" fill="#fb5b6d" stroke="#c6924c" transform="matrix(0.9305,0.3664,-0.3664,0.9305,147.3794,-118.5458)" stroke-width="5" opacity="0.11" style="-webkit-tap-highlight-color: rgba(0, 0, 0, 0); opacity: 0.11;"></ellipse><ellipse cx="419" cy="231" rx="80" ry="112.8" fill="#fb5b6d" stroke="#c6924c" transform="matrix(0.8921,0.4519,-0.4519,0.8921,149.6123,-164.414)" stroke-width="5" opacity="0.11" style="-webkit-tap-highlight-color: rgba(0, 0, 0, 0); opacity: 0.11;"></ellipse><ellipse cx="415" cy="300" rx="127" ry="179.07" fill="#fb5b6d" stroke="#c6924c" transform="matrix(0.8458,0.5334,-0.5334,0.8458,224.0145,-175.1311)" stroke-width="5" opacity="0.11" style="-webkit-tap-highlight-color: rgba(0, 0, 0, 0); opacity: 0.11;"></ellipse><ellipse cx="252" cy="334" rx="124" ry="174.84" fill="#fb5b6d" stroke="#c6924c" transform="matrix(0.7922,0.6103,-0.6103,0.7922,256.2187,-84.3805)" stroke-width="5" opacity="0.11" style="-webkit-tap-highlight-color: rgba(0, 0, 0, 0); opacity: 0.11;"></ellipse><ellipse cx="260" cy="166" rx="61" ry="86.00999999999999" fill="#fb5b6d" stroke="#c6924c" transform="matrix(0.7315,0.6818,-0.6818,0.7315,182.982,-132.7042)" stroke-width="5" opacity="0.11" style="-webkit-tap-highlight-color: rgba(0, 0, 0, 0); opacity: 0.11;"></ellipse><ellipse cx="437" cy="305" rx="72" ry="101.52" fill="#fb5b6d" stroke="#c6924c" transform="matrix(0.6645,0.7473,-0.7473,0.6645,374.5566,-224.2399)" stroke-width="5" opacity="0.11" style="-webkit-tap-highlight-color: rgba(0, 0, 0, 0); opacity: 0.11;"></ellipse><ellipse cx="327" cy="250" rx="77" ry="108.57" fill="#fb5b6d" stroke="#c6924c" transform="matrix(0.5916,0.8063,-0.8063,0.5916,335.1189,-161.5375)" stroke-width="5" opacity="0.11" style="-webkit-tap-highlight-color: rgba(0, 0, 0, 0); opacity: 0.11;"></ellipse><ellipse cx="207" cy="208" rx="83" ry="117.02999999999999" fill="#fb5b6d" stroke="#c6924c" transform="matrix(0.5135,0.8581,-0.8581,0.5135,279.1967,-76.4304)" stroke-width="5" opacity="0.11" style="-webkit-tap-highlight-color: rgba(0, 0, 0, 0); opacity: 0.11;"></ellipse><ellipse cx="245" cy="320" rx="75" ry="105.75" fill="#fb5b6d" stroke="#c6924c" transform="matrix(0.4309,0.9024,-0.9024,0.4309,428.2118,-38.9686)" stroke-width="5" opacity="0.11" style="-webkit-tap-highlight-color: rgba(0, 0, 0, 0); opacity: 0.11;"></ellipse><ellipse cx="335" cy="184" rx="136" ry="191.76" fill="#fb5b6d" stroke="#c6924c" transform="matrix(0.3445,0.9388,-0.9388,0.3445,392.3425,-193.8794)" stroke-width="5" opacity="0.11" style="-webkit-tap-highlight-color: rgba(0, 0, 0, 0); opacity: 0.11;"></ellipse><ellipse cx="311" cy="188" rx="127" ry="179.07" fill="#fb5b6d" stroke="#c6924c" transform="matrix(0.255,0.9669,-0.9669,0.255,413.4645,-160.6632)" stroke-width="5" opacity="0.11" style="-webkit-tap-highlight-color: rgba(0, 0, 0, 0); opacity: 0.11;"></ellipse><ellipse cx="363" cy="209" rx="136" ry="191.76" fill="#fb5b6d" stroke="#c6924c" transform="matrix(0.1634,0.9866,-0.9866,0.1634,509.8858,-183.2685)" stroke-width="5" opacity="0.11" style="-webkit-tap-highlight-color: rgba(0, 0, 0, 0); opacity: 0.11;"></ellipse><ellipse cx="403" cy="248" rx="50" ry="70.5" fill="#fb5b6d" stroke="#c6924c" transform="matrix(0.0703,0.9975,-0.9975,0.0703,622.0655,-171.4321)" stroke-width="5" opacity="0.11" style="-webkit-tap-highlight-color: rgba(0, 0, 0, 0); opacity: 0.11;"></ellipse><ellipse cx="357" cy="252" rx="112" ry="157.92" fill="#fb5b6d" stroke="#c6924c" transform="matrix(-0.0234,0.9997,-0.9997,-0.0234,617.2997,-98.9944)" stroke-width="5" opacity="0.11" style="-webkit-tap-highlight-color: rgba(0, 0, 0, 0); opacity: 0.11;"></ellipse><ellipse cx="237" cy="224" rx="102" ry="143.82" fill="#fb5b6d" stroke="#c6924c" transform="matrix(-0.117,0.9931,-0.9931,-0.117,487.1811,14.8245)" stroke-width="5" opacity="0.11" style="-webkit-tap-highlight-color: rgba(0, 0, 0, 0); opacity: 0.11;"></ellipse><ellipse cx="415" cy="301" rx="110" ry="155.1" fill="#fb5b6d" stroke="#c6924c" transform="matrix(-0.2094,0.9778,-0.9778,-0.2094,796.242,-41.7544)" stroke-width="5" opacity="0.11" style="-webkit-tap-highlight-color: rgba(0, 0, 0, 0); opacity: 0.11;"></ellipse><ellipse cx="282" cy="316" rx="119" ry="167.79" fill="#fb5b6d" stroke="#c6924c" transform="matrix(-0.3001,0.9539,-0.9539,-0.3001,668.0602,141.8234)" stroke-width="5" opacity="0.11" style="-webkit-tap-highlight-color: rgba(0, 0, 0, 0); opacity: 0.11;"></ellipse><ellipse cx="423" cy="146" rx="60" ry="84.6" fill="#fb5b6d" stroke="#c6924c" transform="matrix(-0.3881,0.9216,-0.9216,-0.3881,721.7195,-187.1841)" stroke-width="5" opacity="0.11" style="-webkit-tap-highlight-color: rgba(0, 0, 0, 0); opacity: 0.11;"></ellipse><ellipse cx="207" cy="252" rx="63" ry="88.83" fill="#fb5b6d" stroke="#c6924c" transform="matrix(-0.4727,0.8812,-0.8812,-0.4727,526.9164,188.703)" stroke-width="5" opacity="0.11" style="-webkit-tap-highlight-color: rgba(0, 0, 0, 0); opacity: 0.11;"></ellipse><ellipse cx="313" cy="199" rx="139" ry="195.98999999999998" fill="#fb5b6d" stroke="#c6924c" transform="matrix(-0.5531,0.8331,-0.8331,-0.5531,651.9158,48.3146)" stroke-width="5" opacity="0.11" style="-webkit-tap-highlight-color: rgba(0, 0, 0, 0); opacity: 0.11;"></ellipse><ellipse cx="422" cy="193" rx="98" ry="138.17999999999998" fill="#fb5b6d" stroke="#c6924c" transform="matrix(-0.6287,0.7776,-0.7776,-0.6287,837.4009,-13.8215)" stroke-width="5" opacity="0.11" style="-webkit-tap-highlight-color: rgba(0, 0, 0, 0); opacity: 0.11;"></ellipse><ellipse cx="209" cy="341" rx="99" ry="139.59" fill="#fb5b6d" stroke="#c6924c" transform="matrix(-0.6988,0.7153,-0.7153,-0.6988,598.9761,429.7729)" stroke-width="5" opacity="0.11" style="-webkit-tap-highlight-color: rgba(0, 0, 0, 0); opacity: 0.11;"></ellipse><ellipse cx="345" cy="184" rx="101" ry="142.41" fill="#fb5b6d" stroke="#c6924c" transform="matrix(-0.7627,0.6468,-0.6468,-0.7627,727.1321,101.1985)" stroke-width="5" opacity="0.11" style="-webkit-tap-highlight-color: rgba(0, 0, 0, 0); opacity: 0.11;"></ellipse><ellipse cx="273" cy="224" rx="101" ry="142.41" fill="#fb5b6d" stroke="#c6924c" transform="matrix(-0.8199,0.5725,-0.5725,-0.8199,625.0743,251.3623)" stroke-width="5" opacity="0.11" style="-webkit-tap-highlight-color: rgba(0, 0, 0, 0); opacity: 0.11;"></ellipse><ellipse cx="420" cy="322" rx="93" ry="131.13" fill="#fb5b6d" stroke="#c6924c" transform="matrix(-0.8699,0.4932,-0.4932,-0.8699,944.1765,394.9588)" stroke-width="5" opacity="0.11" style="-webkit-tap-highlight-color: rgba(0, 0, 0, 0); opacity: 0.11;"></ellipse><ellipse cx="362" cy="167" rx="141" ry="198.81" fill="#fb5b6d" stroke="#c6924c" transform="matrix(-0.9123,0.4096,-0.4096,-0.9123,760.6432,171.0773)" stroke-width="5" opacity="0.11" style="-webkit-tap-highlight-color: rgba(0, 0, 0, 0); opacity: 0.11;"></ellipse><ellipse cx="263" cy="211" rx="81" ry="114.21" fill="#fb5b6d" stroke="#c6924c" transform="matrix(-0.9466,0.3224,-0.3224,-0.9466,579.9788,325.9541)" stroke-width="5" opacity="0.11" style="-webkit-tap-highlight-color: rgba(0, 0, 0, 0); opacity: 0.11;"></ellipse><ellipse cx="309" cy="353" rx="71" ry="100.11" fill="#fb5b6d" stroke="#c6924c" transform="matrix(-0.9726,0.2323,-0.2323,-0.9726,691.5504,624.5606)" stroke-width="5" opacity="0.11" style="-webkit-tap-highlight-color: rgba(0, 0, 0, 0); opacity: 0.11;"></ellipse><ellipse cx="216" cy="220" rx="133" ry="187.53" fill="#fb5b6d" stroke="#c6924c" transform="matrix(-0.9901,0.1402,-0.1402,-0.9901,460.7115,407.5427)" stroke-width="5" opacity="0.11" style="-webkit-tap-highlight-color: rgba(0, 0, 0, 0); opacity: 0.11;"></ellipse><ellipse cx="341" cy="210" rx="131" ry="184.70999999999998" fill="#fb5b6d" stroke="#c6924c" transform="matrix(-0.9989,0.0469,-0.0469,-0.9989,691.4684,403.7857)" stroke-width="5" opacity="0.11" style="-webkit-tap-highlight-color: rgba(0, 0, 0, 0); opacity: 0.11;"></ellipse><ellipse cx="366" cy="135" rx="81" ry="114.21" fill="#fb5b6d" stroke="#c6924c" transform="matrix(-0.9989,-0.0469,0.0469,-0.9989,725.27,287.0069)" stroke-width="5" opacity="0.11" style="-webkit-tap-highlight-color: rgba(0, 0, 0, 0); opacity: 0.11;"></ellipse><ellipse cx="214" cy="266" rx="125" ry="176.25" fill="#fb5b6d" stroke="#c6924c" transform="matrix(-0.9901,-0.1402,0.1402,-0.9901,388.5917,559.3764)" stroke-width="5" opacity="0.11" style="-webkit-tap-highlight-color: rgba(0, 0, 0, 0); opacity: 0.11;"></ellipse><ellipse cx="252" cy="338" rx="75" ry="105.75" fill="#fb5b6d" stroke="#c6924c" transform="matrix(-0.9726,-0.2323,0.2323,-0.9726,418.5868,725.2943)" stroke-width="5" opacity="0.11" style="-webkit-tap-highlight-color: rgba(0, 0, 0, 0); opacity: 0.11;"></ellipse><ellipse cx="358" cy="319" rx="128" ry="180.48" fill="#fb5b6d" stroke="#c6924c" transform="matrix(-0.9466,-0.3224,0.3224,-0.9466,594.0542,736.3768)" stroke-width="5" opacity="0.11" style="-webkit-tap-highlight-color: rgba(0, 0, 0, 0); opacity: 0.11;"></ellipse><ellipse cx="208" cy="295" rx="117" ry="164.97" fill="#fb5b6d" stroke="#c6924c" transform="matrix(-0.9123,-0.4096,0.4096,-0.9123,276.9229,649.3143)" stroke-width="5" opacity="0.11" style="-webkit-tap-highlight-color: rgba(0, 0, 0, 0); opacity: 0.11;"></ellipse><ellipse cx="247" cy="319" rx="115" ry="162.14999999999998" fill="#fb5b6d" stroke="#c6924c" transform="matrix(-0.8699,-0.4932,0.4932,-0.8699,304.5307,718.3247)" stroke-width="5" opacity="0.11" style="-webkit-tap-highlight-color: rgba(0, 0, 0, 0); opacity: 0.11;"></ellipse><ellipse cx="234" cy="312" rx="142" ry="200.22" fill="#fb5b6d" stroke="#c6924c" transform="matrix(-0.8199,-0.5725,0.5725,-0.8199,247.2334,701.7754)" stroke-width="5" opacity="0.11" style="-webkit-tap-highlight-color: rgba(0, 0, 0, 0); opacity: 0.11;"></ellipse><ellipse cx="431" cy="248" rx="145" ry="204.45" fill="#fb5b6d" stroke="#c6924c" transform="matrix(-0.7627,-0.6468,0.6468,-0.7627,599.3184,715.9038)" stroke-width="5" opacity="0.11" style="-webkit-tap-highlight-color: rgba(0, 0, 0, 0); opacity: 0.11;"></ellipse><ellipse cx="304" cy="290" rx="78" ry="109.97999999999999" fill="#fb5b6d" stroke="#c6924c" transform="matrix(-0.6988,-0.7153,0.7153,-0.6988,308.9753,710.1086)" stroke-width="5" opacity="0.11" style="-webkit-tap-highlight-color: rgba(0, 0, 0, 0); opacity: 0.11;"></ellipse><ellipse cx="387" cy="327" rx="129" ry="181.89" fill="#fb5b6d" stroke="#c6924c" transform="matrix(-0.6287,-0.7776,0.7776,-0.6287,376.0244,833.5348)" stroke-width="5" opacity="0.11" style="-webkit-tap-highlight-color: rgba(0, 0, 0, 0); opacity: 0.11;"></ellipse><ellipse cx="419" cy="213" rx="123" ry="173.42999999999998" fill="#fb5b6d" stroke="#c6924c" transform="matrix(-0.5531,-0.8331,0.8331,-0.5531,473.3129,679.8834)" stroke-width="5" opacity="0.11" style="-webkit-tap-highlight-color: rgba(0, 0, 0, 0); opacity: 0.11;"></ellipse><ellipse cx="308" cy="132" rx="80" ry="112.8" fill="#fb5b6d" stroke="#c6924c" transform="matrix(-0.4727,-0.8812,0.8812,-0.4727,337.2658,465.8136)" stroke-width="5" opacity="0.11" style="-webkit-tap-highlight-color: rgba(0, 0, 0, 0); opacity: 0.11;"></ellipse><ellipse cx="328" cy="151" rx="78" ry="109.97999999999999" fill="#fb5b6d" stroke="#c6924c" transform="matrix(-0.3881,-0.9216,0.9216,-0.3881,316.1294,511.8935)" stroke-width="5" opacity="0.11" style="-webkit-tap-highlight-color: rgba(0, 0, 0, 0); opacity: 0.11;"></ellipse><ellipse cx="299" cy="149" rx="109" ry="153.69" fill="#fb5b6d" stroke="#c6924c" transform="matrix(-0.3001,-0.9539,0.9539,-0.3001,246.5923,478.9325)" stroke-width="5" opacity="0.11" style="-webkit-tap-highlight-color: rgba(0, 0, 0, 0); opacity: 0.11;"></ellipse><ellipse cx="267" cy="185" rx="113" ry="159.32999999999998" fill="#fb5b6d" stroke="#c6924c" transform="matrix(-0.2094,-0.9778,0.9778,-0.2094,142.0236,484.8248)" stroke-width="5" opacity="0.11" style="-webkit-tap-highlight-color: rgba(0, 0, 0, 0); opacity: 0.11;"></ellipse><ellipse cx="412" cy="137" rx="71" ry="100.11" fill="#fb5b6d" stroke="#c6924c" transform="matrix(-0.117,-0.9931,0.9931,-0.117,324.1258,562.1954)" stroke-width="5" opacity="0.11" style="-webkit-tap-highlight-color: rgba(0, 0, 0, 0); opacity: 0.11;"></ellipse><ellipse cx="355" cy="328" rx="128" ry="180.48" fill="#fb5b6d" stroke="#c6924c" transform="matrix(-0.0234,-0.9997,0.9997,-0.0234,35.4123,690.5916)" stroke-width="5" opacity="0.11" style="-webkit-tap-highlight-color: rgba(0, 0, 0, 0); opacity: 0.11;"></ellipse><ellipse cx="422" cy="220" rx="56" ry="78.96" fill="#fb5b6d" stroke="#c6924c" transform="matrix(0.0703,-0.9975,0.9975,0.0703,172.8874,625.4959)" stroke-width="5" opacity="0.11" style="-webkit-tap-highlight-color: rgba(0, 0, 0, 0); opacity: 0.11;"></ellipse><ellipse cx="301" cy="180" rx="90" ry="126.89999999999999" fill="#fb5b6d" stroke="#c6924c" transform="matrix(0.1634,-0.9866,0.9866,0.1634,74.242,447.5477)" stroke-width="5" opacity="0.11" style="-webkit-tap-highlight-color: rgba(0, 0, 0, 0); opacity: 0.11;"></ellipse><ellipse cx="234" cy="259" rx="88" ry="124.08" fill="#fb5b6d" stroke="#c6924c" transform="matrix(0.255,-0.9669,0.9669,0.255,-76.1148,419.2055)" stroke-width="5" opacity="0.11" style="-webkit-tap-highlight-color: rgba(0, 0, 0, 0); opacity: 0.11;"></ellipse><ellipse cx="284" cy="202" rx="109" ry="153.69" fill="#fb5b6d" stroke="#c6924c" transform="matrix(0.3445,-0.9388,0.9388,0.3445,-3.4659,399.0365)" stroke-width="5" opacity="0.11" style="-webkit-tap-highlight-color: rgba(0, 0, 0, 0); opacity: 0.11;"></ellipse><ellipse cx="342" cy="245" rx="90" ry="126.89999999999999" fill="#fb5b6d" stroke="#c6924c" transform="matrix(0.4309,-0.9024,0.9024,0.4309,-26.4476,448.065)" stroke-width="5" opacity="0.11" style="-webkit-tap-highlight-color: rgba(0, 0, 0, 0); opacity: 0.11;"></ellipse><ellipse cx="405" cy="326" rx="78" ry="109.97999999999999" fill="#fb5b6d" stroke="#c6924c" transform="matrix(0.5135,-0.8581,0.8581,0.5135,-82.6993,506.14)" stroke-width="5" opacity="0.11" style="-webkit-tap-highlight-color: rgba(0, 0, 0, 0); opacity: 0.11;"></ellipse><ellipse cx="212" cy="210" rx="60" ry="84.6" fill="#fb5b6d" stroke="#c6924c" transform="matrix(0.5916,-0.8063,0.8063,0.5916,-82.7262,256.6953)" stroke-width="5" opacity="0.11" style="-webkit-tap-highlight-color: rgba(0, 0, 0, 0); opacity: 0.11;"></ellipse><ellipse cx="404" cy="278" rx="136" ry="191.76" fill="#fb5b6d" stroke="#c6924c" transform="matrix(0.6645,-0.7473,0.7473,0.6645,-72.1997,395.1916)" stroke-width="5" opacity="0.11" style="-webkit-tap-highlight-color: rgba(0, 0, 0, 0); opacity: 0.11;"></ellipse><ellipse cx="385" cy="133" rx="95" ry="133.95" fill="#fb5b6d" stroke="#c6924c" transform="matrix(0.7315,-0.6818,0.6818,0.7315,12.68,298.2023)" stroke-width="5" opacity="0.11" style="-webkit-tap-highlight-color: rgba(0, 0, 0, 0); opacity: 0.11;"></ellipse><ellipse cx="199" cy="269" rx="101" ry="142.41" fill="#fb5b6d" stroke="#c6924c" transform="matrix(0.7922,-0.6103,0.6103,0.7922,-122.8138,177.36)" stroke-width="5" opacity="0.11" style="-webkit-tap-highlight-color: rgba(0, 0, 0, 0); opacity: 0.11;"></ellipse><ellipse cx="287" cy="144" rx="95" ry="133.95" fill="#fb5b6d" stroke="#c6924c" transform="matrix(0.8458,-0.5334,0.5334,0.8458,-32.5705,175.3001)" stroke-width="5" opacity="0.11" style="-webkit-tap-highlight-color: rgba(0, 0, 0, 0); opacity: 0.11;"></ellipse><ellipse cx="382" cy="232" rx="136" ry="191.76" fill="#fb5b6d" stroke="#c6924c" transform="matrix(0.8921,-0.4519,0.4519,0.8921,-63.611,197.666)" stroke-width="5" opacity="0.11" style="-webkit-tap-highlight-color: rgba(0, 0, 0, 0); opacity: 0.11;"></ellipse><ellipse cx="429" cy="329" rx="123" ry="173.42999999999998" fill="#fb5b6d" stroke="#c6924c" transform="matrix(0.9305,-0.3664,0.3664,0.9305,-90.7086,180.054)" stroke-width="5" opacity="0.11" style="-webkit-tap-highlight-color: rgba(0, 0, 0, 0); opacity: 0.11;"></ellipse><ellipse cx="241" cy="340" rx="126" ry="177.66" fill="#fb5b6d" stroke="#c6924c" transform="matrix(0.9607,-0.2776,0.2776,0.9607,-84.9227,80.2783)" stroke-width="5" opacity="0.11" style="-webkit-tap-highlight-color: rgba(0, 0, 0, 0); opacity: 0.11;"></ellipse><ellipse cx="384" cy="292" rx="88" ry="124.08" fill="#fb5b6d" stroke="#c6924c" transform="matrix(0.9825,-0.1865,0.1865,0.9825,-47.712,76.7216)" stroke-width="5" opacity="0.11" style="-webkit-tap-highlight-color: rgba(0, 0, 0, 0); opacity: 0.11;"></ellipse><ellipse cx="206" cy="266" rx="139" ry="195.98999999999998" fill="#fb5b6d" stroke="#c6924c" transform="matrix(0.9956,-0.0936,0.0936,0.9956,-24.0035,20.459)" stroke-width="5" opacity="0.11" style="-webkit-tap-highlight-color: rgba(0, 0, 0, 0); opacity: 0.11;"></ellipse></svg>