<svg height="480" version="1.1" width="640" xmlns="http://www.w3.org/2000/svg" style="overflow: hidden; position: relative; top: -0.3125px;"><desc style="-webkit-tap-highlight-color: rgba(0, 0, 0, 0);">Created with Raphaël 2.0.1</desc><defs style="-webkit-tap-highlight-color: rgba(0, 0, 0, 0);"></defs><rect x="0" y="0" width="640" height="480" r="0" rx="0" ry="0" fill="#9f4052" stroke="none" style="-webkit-tap-highlight-color: rgba(0, 0, 0, 0);"></rect><ellipse cx="247" cy="240" rx="98" ry="138.17999999999998" fill="#2ca3db" stroke="#5f0855" transform="matrix(1,0,0,1,0,0)" stroke-width="13" opacity="0.22" style="-webkit-tap-highlight-color: rgba(0, 0, 0, 0); opacity: 0.22;"></ellipse><ellipse cx="411" cy="257" rx="144" ry="203.04" fill="#2ca3db" stroke="#5f0855" transform="matrix(0.9871,0.1604,-0.1604,0.9871,46.548,-62.601)" stroke-width="13" opacity="0.22" style="-webkit-tap-highlight-color: rgba(0, 0, 0, 0); opacity: 0.22;"></ellipse><ellipse cx="394" cy="253" rx="65" ry="91.64999999999999" fill="#2ca3db" stroke="#5f0855" transform="matrix(0.9485,0.3167,-0.3167,0.9485,100.3936,-111.7469)" stroke-width="13" opacity="0.22" style="-webkit-tap-highlight-color: rgba(0, 0, 0, 0); opacity: 0.22;"></ellipse><ellipse cx="277" cy="231" rx="82" ry="115.61999999999999" fill="#2ca3db" stroke="#5f0855" transform="matrix(0.8855,0.4647,-0.4647,0.8855,139.0797,-102.2687)" stroke-width="13" opacity="0.22" style="-webkit-tap-highlight-color: rgba(0, 0, 0, 0); opacity: 0.22;"></ellipse><ellipse cx="277" cy="244" rx="107" ry="150.87" fill="#2ca3db" stroke="#5f0855" transform="matrix(0.7994,0.6007,-0.6007,0.7994,202.1355,-117.4696)" stroke-width="13" opacity="0.22" style="-webkit-tap-highlight-color: rgba(0, 0, 0, 0); opacity: 0.22;"></ellipse><ellipse cx="297" cy="246" rx="77" ry="108.57" fill="#2ca3db" stroke="#5f0855" transform="matrix(0.6927,0.7212,-0.7212,0.6927,268.6767,-138.6073)" stroke-width="13" opacity="0.22" style="-webkit-tap-highlight-color: rgba(0, 0, 0, 0); opacity: 0.22;"></ellipse><ellipse cx="393" cy="232" rx="102" ry="143.82" fill="#2ca3db" stroke="#5f0855" transform="matrix(0.5681,0.823,-0.823,0.5681,360.6828,-223.2237)" stroke-width="13" opacity="0.22" style="-webkit-tap-highlight-color: rgba(0, 0, 0, 0); opacity: 0.22;"></ellipse><ellipse cx="358" cy="224" rx="33" ry="46.529999999999994" fill="#2ca3db" stroke="#5f0855" transform="matrix(0.4287,0.9035,-0.9035,0.4287,406.901,-195.4624)" stroke-width="13" opacity="0.22" style="-webkit-tap-highlight-color: rgba(0, 0, 0, 0); opacity: 0.22;"></ellipse><ellipse cx="294" cy="254" rx="118" ry="166.38" fill="#2ca3db" stroke="#5f0855" transform="matrix(0.2782,0.9605,-0.9605,0.2782,456.1757,-99.0596)" stroke-width="13" opacity="0.22" style="-webkit-tap-highlight-color: rgba(0, 0, 0, 0); opacity: 0.22;"></ellipse><ellipse cx="329" cy="243" rx="98" ry="138.17999999999998" fill="#2ca3db" stroke="#5f0855" transform="matrix(0.1205,0.9927,-0.9927,0.1205,530.5717,-112.8916)" stroke-width="13" opacity="0.22" style="-webkit-tap-highlight-color: rgba(0, 0, 0, 0); opacity: 0.22;"></ellipse><ellipse cx="266" cy="223" rx="160" ry="225.6" fill="#2ca3db" stroke="#5f0855" transform="matrix(-0.0403,0.9992,-0.9992,-0.0403,499.5299,-33.805)" stroke-width="13" opacity="0.22" style="-webkit-tap-highlight-color: rgba(0, 0, 0, 0); opacity: 0.22;"></ellipse><ellipse cx="294" cy="227" rx="37" ry="52.169999999999995" fill="#2ca3db" stroke="#5f0855" transform="matrix(-0.2,0.9798,-0.9798,-0.2,575.22,-15.6526)" stroke-width="13" opacity="0.22" style="-webkit-tap-highlight-color: rgba(0, 0, 0, 0); opacity: 0.22;"></ellipse><ellipse cx="373" cy="239" rx="83" ry="117.02999999999999" fill="#2ca3db" stroke="#5f0855" transform="matrix(-0.3546,0.935,-0.935,-0.3546,728.7365,-25.0105)" stroke-width="13" opacity="0.22" style="-webkit-tap-highlight-color: rgba(0, 0, 0, 0); opacity: 0.22;"></ellipse><ellipse cx="308" cy="235" rx="145" ry="204.45" fill="#2ca3db" stroke="#5f0855" transform="matrix(-0.5,0.866,-0.866,-0.5,665.516,85.7642)" stroke-width="13" opacity="0.22" style="-webkit-tap-highlight-color: rgba(0, 0, 0, 0); opacity: 0.22;"></ellipse><ellipse cx="388" cy="237" rx="130" ry="183.29999999999998" fill="#2ca3db" stroke="#5f0855" transform="matrix(-0.6324,0.7746,-0.7746,-0.6324,816.9702,86.3428)" stroke-width="13" opacity="0.22" style="-webkit-tap-highlight-color: rgba(0, 0, 0, 0); opacity: 0.22;"></ellipse><ellipse cx="320" cy="242" rx="129" ry="181.89" fill="#2ca3db" stroke="#5f0855" transform="matrix(-0.7485,0.6631,-0.6631,-0.7485,719.9991,210.9404)" stroke-width="13" opacity="0.22" style="-webkit-tap-highlight-color: rgba(0, 0, 0, 0); opacity: 0.22;"></ellipse><ellipse cx="227" cy="252" rx="96" ry="135.35999999999999" fill="#2ca3db" stroke="#5f0855" transform="matrix(-0.8452,0.5345,-0.5345,-0.8452,553.5435,343.6642)" stroke-width="13" opacity="0.22" style="-webkit-tap-highlight-color: rgba(0, 0, 0, 0); opacity: 0.22;"></ellipse><ellipse cx="220" cy="235" rx="103" ry="145.23" fill="#2ca3db" stroke="#5f0855" transform="matrix(-0.92,0.392,-0.392,-0.92,514.5076,364.9625)" stroke-width="13" opacity="0.22" style="-webkit-tap-highlight-color: rgba(0, 0, 0, 0); opacity: 0.22;"></ellipse><ellipse cx="305" cy="221" rx="33" ry="46.529999999999994" fill="#2ca3db" stroke="#5f0855" transform="matrix(-0.9709,0.2393,-0.2393,-0.9709,654.026,362.5869)" stroke-width="13" opacity="0.22" style="-webkit-tap-highlight-color: rgba(0, 0, 0, 0); opacity: 0.22;"></ellipse><ellipse cx="428" cy="248" rx="136" ry="191.76" fill="#2ca3db" stroke="#5f0855" transform="matrix(-0.9968,0.0805,-0.0805,-0.9968,874.5678,460.7561)" stroke-width="13" opacity="0.22" style="-webkit-tap-highlight-color: rgba(0, 0, 0, 0); opacity: 0.22;"></ellipse><ellipse cx="341" cy="238" rx="129" ry="181.89" fill="#2ca3db" stroke="#5f0855" transform="matrix(-0.9968,-0.0805,0.0805,-0.9968,661.7432,502.6673)" stroke-width="13" opacity="0.22" style="-webkit-tap-highlight-color: rgba(0, 0, 0, 0); opacity: 0.22;"></ellipse><ellipse cx="237" cy="256" rx="155" ry="218.54999999999998" fill="#2ca3db" stroke="#5f0855" transform="matrix(-0.9709,-0.2393,0.2393,-0.9709,405.8484,561.2789)" stroke-width="13" opacity="0.22" style="-webkit-tap-highlight-color: rgba(0, 0, 0, 0); opacity: 0.22;"></ellipse><ellipse cx="230" cy="254" rx="78" ry="109.97999999999999" fill="#2ca3db" stroke="#5f0855" transform="matrix(-0.92,-0.392,0.392,-0.92,342.0358,577.8271)" stroke-width="13" opacity="0.22" style="-webkit-tap-highlight-color: rgba(0, 0, 0, 0); opacity: 0.22;"></ellipse><ellipse cx="287" cy="250" rx="128" ry="180.48" fill="#2ca3db" stroke="#5f0855" transform="matrix(-0.8452,-0.5345,0.5345,-0.8452,395.9531,614.6892)" stroke-width="13" opacity="0.22" style="-webkit-tap-highlight-color: rgba(0, 0, 0, 0); opacity: 0.22;"></ellipse><ellipse cx="415" cy="254" rx="66" ry="93.05999999999999" fill="#2ca3db" stroke="#5f0855" transform="matrix(-0.7485,-0.6631,0.6631,-0.7485,557.1988,719.3176)" stroke-width="13" opacity="0.22" style="-webkit-tap-highlight-color: rgba(0, 0, 0, 0); opacity: 0.22;"></ellipse><ellipse cx="412" cy="233" rx="107" ry="150.87" fill="#2ca3db" stroke="#5f0855" transform="matrix(-0.6324,-0.7746,0.7746,-0.6324,492.0845,699.497)" stroke-width="13" opacity="0.22" style="-webkit-tap-highlight-color: rgba(0, 0, 0, 0); opacity: 0.22;"></ellipse><ellipse cx="248" cy="252" rx="143" ry="201.63" fill="#2ca3db" stroke="#5f0855" transform="matrix(-0.5,-0.866,0.866,-0.5,153.7616,592.7743)" stroke-width="13" opacity="0.22" style="-webkit-tap-highlight-color: rgba(0, 0, 0, 0); opacity: 0.22;"></ellipse><ellipse cx="374" cy="255" rx="138" ry="194.57999999999998" fill="#2ca3db" stroke="#5f0855" transform="matrix(-0.3546,-0.935,0.935,-0.3546,268.1931,695.1203)" stroke-width="13" opacity="0.22" style="-webkit-tap-highlight-color: rgba(0, 0, 0, 0); opacity: 0.22;"></ellipse><ellipse cx="303" cy="250" rx="163" ry="229.82999999999998" fill="#2ca3db" stroke="#5f0855" transform="matrix(-0.2,-0.9798,0.9798,-0.2,118.6601,596.883)" stroke-width="13" opacity="0.22" style="-webkit-tap-highlight-color: rgba(0, 0, 0, 0); opacity: 0.22;"></ellipse><ellipse cx="383" cy="242" rx="106" ry="149.45999999999998" fill="#2ca3db" stroke="#5f0855" transform="matrix(-0.0403,-0.9992,0.9992,-0.0403,156.6181,634.4337)" stroke-width="13" opacity="0.22" style="-webkit-tap-highlight-color: rgba(0, 0, 0, 0); opacity: 0.22;"></ellipse><ellipse cx="318" cy="249" rx="117" ry="164.97" fill="#2ca3db" stroke="#5f0855" transform="matrix(0.1205,-0.9927,0.9927,0.1205,32.4848,534.6678)" stroke-width="13" opacity="0.22" style="-webkit-tap-highlight-color: rgba(0, 0, 0, 0); opacity: 0.22;"></ellipse><ellipse cx="256" cy="256" rx="68" ry="95.88" fill="#2ca3db" stroke="#5f0855" transform="matrix(0.2782,-0.9605,0.9605,0.2782,-61.1163,430.669)" stroke-width="13" opacity="0.22" style="-webkit-tap-highlight-color: rgba(0, 0, 0, 0); opacity: 0.22;"></ellipse><ellipse cx="299" cy="259" rx="113" ry="159.32999999999998" fill="#2ca3db" stroke="#5f0855" transform="matrix(0.4287,-0.9035,0.9035,0.4287,-63.1727,418.1003)" stroke-width="13" opacity="0.22" style="-webkit-tap-highlight-color: rgba(0, 0, 0, 0); opacity: 0.22;"></ellipse><ellipse cx="328" cy="225" rx="43" ry="60.629999999999995" fill="#2ca3db" stroke="#5f0855" transform="matrix(0.5681,-0.823,0.823,0.5681,-43.4966,367.1241)" stroke-width="13" opacity="0.22" style="-webkit-tap-highlight-color: rgba(0, 0, 0, 0); opacity: 0.22;"></ellipse><ellipse cx="282" cy="231" rx="42" ry="59.22" fill="#2ca3db" stroke="#5f0855" transform="matrix(0.6927,-0.7212,0.7212,0.6927,-79.946,274.3598)" stroke-width="13" opacity="0.22" style="-webkit-tap-highlight-color: rgba(0, 0, 0, 0); opacity: 0.22;"></ellipse><ellipse cx="388" cy="254" rx="156" ry="219.95999999999998" fill="#2ca3db" stroke="#5f0855" transform="matrix(0.7994,-0.6007,0.6007,0.7994,-74.7723,284.0295)" stroke-width="13" opacity="0.22" style="-webkit-tap-highlight-color: rgba(0, 0, 0, 0); opacity: 0.22;"></ellipse><ellipse cx="387" cy="223" rx="161" ry="227.01" fill="#2ca3db" stroke="#5f0855" transform="matrix(0.8855,-0.4647,0.4647,0.8855,-59.3047,205.3912)" stroke-width="13" opacity="0.22" style="-webkit-tap-highlight-color: rgba(0, 0, 0, 0); opacity: 0.22;"></ellipse><ellipse cx="332" cy="250" rx="39" ry="54.989999999999995" fill="#2ca3db" stroke="#5f0855" transform="matrix(0.9485,-0.3167,0.3167,0.9485,-62.0811,117.9997)" stroke-width="13" opacity="0.22" style="-webkit-tap-highlight-color: rgba(0, 0, 0, 0); opacity: 0.22;"></ellipse><ellipse cx="402" cy="222" rx="85" ry="119.85" fill="#2ca3db" stroke="#5f0855" transform="matrix(0.9871,-0.1604,0.1604,0.9871,-30.4055,67.3602)" stroke-width="13" opacity="0.22" style="-webkit-tap-highlight-color: rgba(0, 0, 0, 0); opacity: 0.22;"></ellipse></svg>