<svg height="480" version="1.1" width="640" xmlns="http://www.w3.org/2000/svg" style="overflow: hidden; position: relative; top: -0.3125px;"><desc style="-webkit-tap-highlight-color: rgba(0, 0, 0, 0);">Created with Raphaël 2.0.1</desc><defs style="-webkit-tap-highlight-color: rgba(0, 0, 0, 0);"></defs><rect x="0" y="0" width="640" height="480" r="0" rx="0" ry="0" fill="#993309" stroke="none" style="-webkit-tap-highlight-color: rgba(0, 0, 0, 0);"></rect><ellipse cx="307" cy="240" rx="73" ry="102.92999999999999" fill="none" stroke="#e14930" transform="matrix(1,0,0,1,0,0)" stroke-width="6" opacity="0.11" style="-webkit-tap-highlight-color: rgba(0, 0, 0, 0); opacity: 0.11;"></ellipse><ellipse cx="536" cy="224" rx="74" ry="104.33999999999999" fill="none" stroke="#e14930" transform="matrix(0.9927,0.1205,-0.1205,0.9927,30.9083,-62.9744)" stroke-width="6" opacity="0.11" style="-webkit-tap-highlight-color: rgba(0, 0, 0, 0); opacity: 0.11;"></ellipse><ellipse cx="400" cy="235" rx="75" ry="105.75" fill="none" stroke="#e14930" transform="matrix(0.9709,0.2393,-0.2393,0.9709,67.8625,-88.8976)" stroke-width="6" opacity="0.11" style="-webkit-tap-highlight-color: rgba(0, 0, 0, 0); opacity: 0.11;"></ellipse><ellipse cx="585" cy="158" rx="68" ry="95.88" fill="none" stroke="#e14930" transform="matrix(0.935,0.3546,-0.3546,0.935,94.0431,-197.1764)" stroke-width="6" opacity="0.11" style="-webkit-tap-highlight-color: rgba(0, 0, 0, 0); opacity: 0.11;"></ellipse><ellipse cx="520" cy="373" rx="70" ry="98.69999999999999" fill="none" stroke="#e14930" transform="matrix(0.8855,0.4647,-0.4647,0.8855,232.9046,-198.9311)" stroke-width="6" opacity="0.11" style="-webkit-tap-highlight-color: rgba(0, 0, 0, 0); opacity: 0.11;"></ellipse><ellipse cx="609" cy="175" rx="70" ry="98.69999999999999" fill="none" stroke="#e14930" transform="matrix(0.823,0.5681,-0.5681,0.823,207.2142,-314.9736)" stroke-width="6" opacity="0.11" style="-webkit-tap-highlight-color: rgba(0, 0, 0, 0); opacity: 0.11;"></ellipse><ellipse cx="130" cy="90" rx="73" ry="102.92999999999999" fill="none" stroke="#e14930" transform="matrix(0.7485,0.6631,-0.6631,0.7485,92.3746,-63.5719)" stroke-width="6" opacity="0.11" style="-webkit-tap-highlight-color: rgba(0, 0, 0, 0); opacity: 0.11;"></ellipse><ellipse cx="359" cy="128" rx="69" ry="97.28999999999999" fill="none" stroke="#e14930" transform="matrix(0.6631,0.7485,-0.7485,0.6631,216.7483,-225.5951)" stroke-width="6" opacity="0.11" style="-webkit-tap-highlight-color: rgba(0, 0, 0, 0); opacity: 0.11;"></ellipse><ellipse cx="169" cy="181" rx="71" ry="100.11" fill="none" stroke="#e14930" transform="matrix(0.5681,0.823,-0.823,0.5681,221.9571,-60.904)" stroke-width="6" opacity="0.11" style="-webkit-tap-highlight-color: rgba(0, 0, 0, 0); opacity: 0.11;"></ellipse><ellipse cx="403" cy="269" rx="74" ry="104.33999999999999" fill="none" stroke="#e14930" transform="matrix(0.4647,0.8855,-0.8855,0.4647,453.9042,-212.8493)" stroke-width="6" opacity="0.11" style="-webkit-tap-highlight-color: rgba(0, 0, 0, 0); opacity: 0.11;"></ellipse><ellipse cx="501" cy="159" rx="73" ry="102.92999999999999" fill="none" stroke="#e14930" transform="matrix(0.3546,0.935,-0.935,0.3546,472.0105,-365.8253)" stroke-width="6" opacity="0.11" style="-webkit-tap-highlight-color: rgba(0, 0, 0, 0); opacity: 0.11;"></ellipse><ellipse cx="309" cy="261" rx="75" ry="105.75" fill="none" stroke="#e14930" transform="matrix(0.2393,0.9709,-0.9709,0.2393,488.4673,-101.4824)" stroke-width="6" opacity="0.11" style="-webkit-tap-highlight-color: rgba(0, 0, 0, 0); opacity: 0.11;"></ellipse><ellipse cx="34" cy="317" rx="72" ry="101.52" fill="none" stroke="#e14930" transform="matrix(0.1205,0.9927,-0.9927,0.1205,344.5905,245.0378)" stroke-width="6" opacity="0.11" style="-webkit-tap-highlight-color: rgba(0, 0, 0, 0); opacity: 0.11;"></ellipse><ellipse cx="57" cy="338" rx="71" ry="100.11" fill="none" stroke="#e14930" transform="matrix(0,1,-1,0,395,281)" stroke-width="6" opacity="0.11" style="-webkit-tap-highlight-color: rgba(0, 0, 0, 0); opacity: 0.11;"></ellipse><ellipse cx="83" cy="246" rx="70" ry="98.69999999999999" fill="none" stroke="#e14930" transform="matrix(-0.1205,0.9927,-0.9927,-0.1205,337.2109,193.2572)" stroke-width="6" opacity="0.11" style="-webkit-tap-highlight-color: rgba(0, 0, 0, 0); opacity: 0.11;"></ellipse><ellipse cx="591" cy="288" rx="66" ry="93.05999999999999" fill="none" stroke="#e14930" transform="matrix(-0.2393,0.9709,-0.9709,-0.2393,1012.0668,-216.9037)" stroke-width="6" opacity="0.11" style="-webkit-tap-highlight-color: rgba(0, 0, 0, 0); opacity: 0.11;"></ellipse><ellipse cx="428" cy="207" rx="75" ry="105.75" fill="none" stroke="#e14930" transform="matrix(-0.3546,0.935,-0.935,-0.3546,773.3193,-119.7837)" stroke-width="6" opacity="0.11" style="-webkit-tap-highlight-color: rgba(0, 0, 0, 0); opacity: 0.11;"></ellipse><ellipse cx="472" cy="334" rx="72" ry="101.52" fill="none" stroke="#e14930" transform="matrix(-0.4647,0.8855,-0.8855,-0.4647,987.0917,71.2823)" stroke-width="6" opacity="0.11" style="-webkit-tap-highlight-color: rgba(0, 0, 0, 0); opacity: 0.11;"></ellipse><ellipse cx="352" cy="225" rx="66" ry="93.05999999999999" fill="none" stroke="#e14930" transform="matrix(-0.5681,0.823,-0.823,-0.5681,737.1302,63.1242)" stroke-width="6" opacity="0.11" style="-webkit-tap-highlight-color: rgba(0, 0, 0, 0); opacity: 0.11;"></ellipse><ellipse cx="102" cy="348" rx="71" ry="100.11" fill="none" stroke="#e14930" transform="matrix(-0.6631,0.7485,-0.7485,-0.6631,430.1203,502.4186)" stroke-width="6" opacity="0.11" style="-webkit-tap-highlight-color: rgba(0, 0, 0, 0); opacity: 0.11;"></ellipse><ellipse cx="286" cy="351" rx="69" ry="97.28999999999999" fill="none" stroke="#e14930" transform="matrix(-0.7485,0.6631,-0.6631,-0.7485,732.8301,424.0742)" stroke-width="6" opacity="0.11" style="-webkit-tap-highlight-color: rgba(0, 0, 0, 0); opacity: 0.11;"></ellipse><ellipse cx="579" cy="281" rx="68" ry="95.88" fill="none" stroke="#e14930" transform="matrix(-0.823,0.5681,-0.5681,-0.823,1215.1339,183.349)" stroke-width="6" opacity="0.11" style="-webkit-tap-highlight-color: rgba(0, 0, 0, 0); opacity: 0.11;"></ellipse><ellipse cx="87" cy="236" rx="73" ry="102.92999999999999" fill="none" stroke="#e14930" transform="matrix(-0.8855,0.4647,-0.4647,-0.8855,273.7093,404.5367)" stroke-width="6" opacity="0.11" style="-webkit-tap-highlight-color: rgba(0, 0, 0, 0); opacity: 0.11;"></ellipse><ellipse cx="496" cy="175" rx="74" ry="104.33999999999999" fill="none" stroke="#e14930" transform="matrix(-0.935,0.3546,-0.3546,-0.935,1021.8239,162.7438)" stroke-width="6" opacity="0.11" style="-webkit-tap-highlight-color: rgba(0, 0, 0, 0); opacity: 0.11;"></ellipse><ellipse cx="368" cy="219" rx="73" ry="102.92999999999999" fill="none" stroke="#e14930" transform="matrix(-0.9709,0.2393,-0.2393,-0.9709,777.7167,343.5681)" stroke-width="6" opacity="0.11" style="-webkit-tap-highlight-color: rgba(0, 0, 0, 0); opacity: 0.11;"></ellipse><ellipse cx="116" cy="111" rx="75" ry="105.75" fill="none" stroke="#e14930" transform="matrix(-0.9927,0.1205,-0.1205,-0.9927,244.5338,207.2084)" stroke-width="6" opacity="0.11" style="-webkit-tap-highlight-color: rgba(0, 0, 0, 0); opacity: 0.11;"></ellipse><ellipse cx="31" cy="323" rx="72" ry="101.52" fill="none" stroke="#e14930" transform="matrix(-1,0,0,-1,62,646)" stroke-width="6" opacity="0.11" style="-webkit-tap-highlight-color: rgba(0, 0, 0, 0); opacity: 0.11;"></ellipse><ellipse cx="52" cy="221" rx="66" ry="93.05999999999999" fill="none" stroke="#e14930" transform="matrix(-0.9927,-0.1205,0.1205,-0.9927,76.9823,446.6566)" stroke-width="6" opacity="0.11" style="-webkit-tap-highlight-color: rgba(0, 0, 0, 0); opacity: 0.11;"></ellipse><ellipse cx="412" cy="218" rx="73" ry="102.92999999999999" fill="none" stroke="#e14930" transform="matrix(-0.9709,-0.2393,0.2393,-0.9709,759.8572,528.2634)" stroke-width="6" opacity="0.11" style="-webkit-tap-highlight-color: rgba(0, 0, 0, 0); opacity: 0.11;"></ellipse><ellipse cx="109" cy="120" rx="71" ry="100.11" fill="none" stroke="#e14930" transform="matrix(-0.935,-0.3546,0.3546,-0.935,168.3642,270.8539)" stroke-width="6" opacity="0.11" style="-webkit-tap-highlight-color: rgba(0, 0, 0, 0); opacity: 0.11;"></ellipse><ellipse cx="88" cy="246" rx="71" ry="100.11" fill="none" stroke="#e14930" transform="matrix(-0.8855,-0.4647,0.4647,-0.8855,51.5982,504.7178)" stroke-width="6" opacity="0.11" style="-webkit-tap-highlight-color: rgba(0, 0, 0, 0); opacity: 0.11;"></ellipse><ellipse cx="218" cy="351" rx="71" ry="100.11" fill="none" stroke="#e14930" transform="matrix(-0.823,-0.5681,0.5681,-0.823,198.0198,763.7055)" stroke-width="6" opacity="0.11" style="-webkit-tap-highlight-color: rgba(0, 0, 0, 0); opacity: 0.11;"></ellipse><ellipse cx="322" cy="284" rx="73" ry="102.92999999999999" fill="none" stroke="#e14930" transform="matrix(-0.7485,-0.6631,0.6631,-0.7485,374.6936,710.1025)" stroke-width="6" opacity="0.11" style="-webkit-tap-highlight-color: rgba(0, 0, 0, 0); opacity: 0.11;"></ellipse><ellipse cx="345" cy="97" rx="72" ry="101.52" fill="none" stroke="#e14930" transform="matrix(-0.6631,-0.7485,0.7485,-0.6631,501.1718,419.5591)" stroke-width="6" opacity="0.11" style="-webkit-tap-highlight-color: rgba(0, 0, 0, 0); opacity: 0.11;"></ellipse><ellipse cx="604" cy="274" rx="75" ry="105.75" fill="none" stroke="#e14930" transform="matrix(-0.5681,-0.823,0.823,-0.5681,721.6135,926.732)" stroke-width="6" opacity="0.11" style="-webkit-tap-highlight-color: rgba(0, 0, 0, 0); opacity: 0.11;"></ellipse><ellipse cx="192" cy="185" rx="71" ry="100.11" fill="none" stroke="#e14930" transform="matrix(-0.4647,-0.8855,0.8855,-0.4647,117.4175,440.9813)" stroke-width="6" opacity="0.11" style="-webkit-tap-highlight-color: rgba(0, 0, 0, 0); opacity: 0.11;"></ellipse><ellipse cx="370" cy="247" rx="73" ry="102.92999999999999" fill="none" stroke="#e14930" transform="matrix(-0.3546,-0.935,0.935,-0.3546,270.2548,680.5434)" stroke-width="6" opacity="0.11" style="-webkit-tap-highlight-color: rgba(0, 0, 0, 0); opacity: 0.11;"></ellipse><ellipse cx="574" cy="319" rx="72" ry="101.52" fill="none" stroke="#e14930" transform="matrix(-0.2393,-0.9709,0.9709,-0.2393,401.6368,952.6623)" stroke-width="6" opacity="0.11" style="-webkit-tap-highlight-color: rgba(0, 0, 0, 0); opacity: 0.11;"></ellipse><ellipse cx="138" cy="270" rx="75" ry="105.75" fill="none" stroke="#e14930" transform="matrix(-0.1205,-0.9927,0.9927,-0.1205,-113.3973,439.5387)" stroke-width="6" opacity="0.11" style="-webkit-tap-highlight-color: rgba(0, 0, 0, 0); opacity: 0.11;"></ellipse><ellipse cx="43" cy="142" rx="73" ry="102.92999999999999" fill="none" stroke="#e14930" transform="matrix(0,-1,1,0,-99,185)" stroke-width="6" opacity="0.11" style="-webkit-tap-highlight-color: rgba(0, 0, 0, 0); opacity: 0.11;"></ellipse><ellipse cx="33" cy="336" rx="68" ry="95.88" fill="none" stroke="#e14930" transform="matrix(0.1205,-0.9927,0.9927,0.1205,-304.5279,328.2591)" stroke-width="6" opacity="0.11" style="-webkit-tap-highlight-color: rgba(0, 0, 0, 0); opacity: 0.11;"></ellipse><ellipse cx="412" cy="162" rx="68" ry="95.88" fill="none" stroke="#e14930" transform="matrix(0.2393,-0.9709,0.9709,0.2393,156.1094,523.2589)" stroke-width="6" opacity="0.11" style="-webkit-tap-highlight-color: rgba(0, 0, 0, 0); opacity: 0.11;"></ellipse><ellipse cx="129" cy="149" rx="69" ry="97.28999999999999" fill="none" stroke="#e14930" transform="matrix(0.3546,-0.935,0.935,0.3546,-56.0615,216.781)" stroke-width="6" opacity="0.11" style="-webkit-tap-highlight-color: rgba(0, 0, 0, 0); opacity: 0.11;"></ellipse><ellipse cx="530" cy="139" rx="66" ry="93.05999999999999" fill="none" stroke="#e14930" transform="matrix(0.4647,-0.8855,0.8855,0.4647,160.6183,543.6952)" stroke-width="6" opacity="0.11" style="-webkit-tap-highlight-color: rgba(0, 0, 0, 0); opacity: 0.11;"></ellipse><ellipse cx="203" cy="88" rx="68" ry="95.88" fill="none" stroke="#e14930" transform="matrix(0.5681,-0.823,0.823,0.5681,15.2603,205.076)" stroke-width="6" opacity="0.11" style="-webkit-tap-highlight-color: rgba(0, 0, 0, 0); opacity: 0.11;"></ellipse><ellipse cx="56" cy="101" rx="67" ry="94.47" fill="none" stroke="#e14930" transform="matrix(0.6631,-0.7485,0.7485,0.6631,-56.7345,75.9412)" stroke-width="6" opacity="0.11" style="-webkit-tap-highlight-color: rgba(0, 0, 0, 0); opacity: 0.11;"></ellipse><ellipse cx="380" cy="221" rx="71" ry="100.11" fill="none" stroke="#e14930" transform="matrix(0.7485,-0.6631,0.6631,0.7485,-50.9842,307.5657)" stroke-width="6" opacity="0.11" style="-webkit-tap-highlight-color: rgba(0, 0, 0, 0); opacity: 0.11;"></ellipse><ellipse cx="423" cy="389" rx="66" ry="93.05999999999999" fill="none" stroke="#e14930" transform="matrix(0.823,-0.5681,0.5681,0.823,-146.0994,309.1507)" stroke-width="6" opacity="0.11" style="-webkit-tap-highlight-color: rgba(0, 0, 0, 0); opacity: 0.11;"></ellipse><ellipse cx="170" cy="261" rx="66" ry="93.05999999999999" fill="none" stroke="#e14930" transform="matrix(0.8855,-0.4647,0.4647,0.8855,-101.8203,108.8989)" stroke-width="6" opacity="0.11" style="-webkit-tap-highlight-color: rgba(0, 0, 0, 0); opacity: 0.11;"></ellipse><ellipse cx="296" cy="286" rx="73" ry="102.92999999999999" fill="none" stroke="#e14930" transform="matrix(0.935,-0.3546,0.3546,0.935,-82.1818,123.5484)" stroke-width="6" opacity="0.11" style="-webkit-tap-highlight-color: rgba(0, 0, 0, 0); opacity: 0.11;"></ellipse><ellipse cx="155" cy="155" rx="74" ry="104.33999999999999" fill="none" stroke="#e14930" transform="matrix(0.9709,-0.2393,0.2393,0.9709,-32.5899,41.5979)" stroke-width="6" opacity="0.11" style="-webkit-tap-highlight-color: rgba(0, 0, 0, 0); opacity: 0.11;"></ellipse><ellipse cx="605" cy="349" rx="74" ry="104.33999999999999" fill="none" stroke="#e14930" transform="matrix(0.9927,-0.1205,0.1205,0.9927,-37.6562,75.4693)" stroke-width="6" opacity="0.11" style="-webkit-tap-highlight-color: rgba(0, 0, 0, 0); opacity: 0.11;"></ellipse></svg>