<svg height="480" version="1.1" width="640" xmlns="http://www.w3.org/2000/svg" style="overflow: hidden; position: relative; top: -0.3125px;"><desc style="-webkit-tap-highlight-color: rgba(0, 0, 0, 0);">Created with Raphaël 2.0.1</desc><defs style="-webkit-tap-highlight-color: rgba(0, 0, 0, 0);"></defs><rect x="0" y="0" width="640" height="480" r="0" rx="0" ry="0" fill="#f171ce" stroke="none" style="-webkit-tap-highlight-color: rgba(0, 0, 0, 0);"></rect><ellipse cx="114" cy="241" rx="122" ry="172.01999999999998" fill="#6cda36" stroke="#40fa79" transform="matrix(1,0,0,1,0,0)" stroke-width="21" opacity="0.12" style="-webkit-tap-highlight-color: rgba(0, 0, 0, 0); opacity: 0.12;"></ellipse><ellipse cx="545" cy="246" rx="99" ry="139.59" fill="#6cda36" stroke="#40fa79" transform="matrix(0.9943,0.1063,-0.1063,0.9943,29.2357,-56.5363)" stroke-width="21" opacity="0.12" style="-webkit-tap-highlight-color: rgba(0, 0, 0, 0); opacity: 0.12;"></ellipse><ellipse cx="458" cy="230" rx="108" ry="152.28" fill="#6cda36" stroke="#40fa79" transform="matrix(0.9774,0.2114,-0.2114,0.9774,58.9673,-91.616)" stroke-width="21" opacity="0.12" style="-webkit-tap-highlight-color: rgba(0, 0, 0, 0); opacity: 0.12;"></ellipse><ellipse cx="555" cy="240" rx="100" ry="141" fill="#6cda36" stroke="#40fa79" transform="matrix(0.9494,0.3141,-0.3141,0.9494,103.4627,-162.168)" stroke-width="21" opacity="0.12" style="-webkit-tap-highlight-color: rgba(0, 0, 0, 0); opacity: 0.12;"></ellipse><ellipse cx="342" cy="254" rx="116" ry="163.56" fill="#6cda36" stroke="#40fa79" transform="matrix(0.9106,0.4132,-0.4132,0.9106,135.5188,-118.6198)" stroke-width="21" opacity="0.12" style="-webkit-tap-highlight-color: rgba(0, 0, 0, 0); opacity: 0.12;"></ellipse><ellipse cx="700" cy="239" rx="55" ry="77.55" fill="#6cda36" stroke="#40fa79" transform="matrix(0.8616,0.5077,-0.5077,0.8616,218.2443,-322.2775)" stroke-width="21" opacity="0.12" style="-webkit-tap-highlight-color: rgba(0, 0, 0, 0); opacity: 0.12;"></ellipse><ellipse cx="362" cy="256" rx="84" ry="118.44" fill="#6cda36" stroke="#40fa79" transform="matrix(0.8027,0.5964,-0.5964,0.8027,224.0884,-165.3792)" stroke-width="21" opacity="0.12" style="-webkit-tap-highlight-color: rgba(0, 0, 0, 0); opacity: 0.12;"></ellipse><ellipse cx="229" cy="238" rx="102" ry="143.82" fill="#6cda36" stroke="#40fa79" transform="matrix(0.7348,0.6783,-0.6783,0.7348,222.1749,-92.2097)" stroke-width="21" opacity="0.12" style="-webkit-tap-highlight-color: rgba(0, 0, 0, 0); opacity: 0.12;"></ellipse><ellipse cx="564" cy="240" rx="61" ry="86.00999999999999" fill="#6cda36" stroke="#40fa79" transform="matrix(0.6585,0.7526,-0.7526,0.6585,373.2166,-342.4926)" stroke-width="21" opacity="0.12" style="-webkit-tap-highlight-color: rgba(0, 0, 0, 0); opacity: 0.12;"></ellipse><ellipse cx="543" cy="252" rx="79" ry="111.39" fill="#6cda36" stroke="#40fa79" transform="matrix(0.5748,0.8183,-0.8183,0.5748,437.1027,-337.1848)" stroke-width="21" opacity="0.12" style="-webkit-tap-highlight-color: rgba(0, 0, 0, 0); opacity: 0.12;"></ellipse><ellipse cx="419" cy="246" rx="82" ry="115.61999999999999" fill="#6cda36" stroke="#40fa79" transform="matrix(0.4846,0.8748,-0.8748,0.4846,431.1649,-239.7252)" stroke-width="21" opacity="0.12" style="-webkit-tap-highlight-color: rgba(0, 0, 0, 0); opacity: 0.12;"></ellipse><ellipse cx="-12" cy="240" rx="52" ry="73.32" fill="#6cda36" stroke="#40fa79" transform="matrix(0.3888,0.9213,-0.9213,0.3888,213.7808,157.7379)" stroke-width="21" opacity="0.12" style="-webkit-tap-highlight-color: rgba(0, 0, 0, 0); opacity: 0.12;"></ellipse><ellipse cx="577" cy="243" rx="50" ry="70.5" fill="#6cda36" stroke="#40fa79" transform="matrix(0.2887,0.9574,-0.9574,0.2887,643.0783,-379.5847)" stroke-width="21" opacity="0.12" style="-webkit-tap-highlight-color: rgba(0, 0, 0, 0); opacity: 0.12;"></ellipse><ellipse cx="292" cy="242" rx="61" ry="86.00999999999999" fill="#6cda36" stroke="#40fa79" transform="matrix(0.1853,0.9827,-0.9827,0.1853,475.7053,-89.7836)" stroke-width="21" opacity="0.12" style="-webkit-tap-highlight-color: rgba(0, 0, 0, 0); opacity: 0.12;"></ellipse><ellipse cx="665" cy="228" rx="34" ry="47.94" fill="#6cda36" stroke="#40fa79" transform="matrix(0.0798,0.9968,-0.9968,0.0798,839.2154,-453.0712)" stroke-width="21" opacity="0.12" style="-webkit-tap-highlight-color: rgba(0, 0, 0, 0); opacity: 0.12;"></ellipse><ellipse cx="21" cy="246" rx="92" ry="129.72" fill="#6cda36" stroke="#40fa79" transform="matrix(-0.0266,0.9996,-0.9996,-0.0266,267.4719,231.5561)" stroke-width="21" opacity="0.12" style="-webkit-tap-highlight-color: rgba(0, 0, 0, 0); opacity: 0.12;"></ellipse><ellipse cx="350" cy="236" rx="45" ry="63.449999999999996" fill="#6cda36" stroke="#40fa79" transform="matrix(-0.1327,0.9912,-0.9912,-0.1327,630.366,-79.5803)" stroke-width="21" opacity="0.12" style="-webkit-tap-highlight-color: rgba(0, 0, 0, 0); opacity: 0.12;"></ellipse><ellipse cx="81" cy="248" rx="41" ry="57.809999999999995" fill="#6cda36" stroke="#40fa79" transform="matrix(-0.2373,0.9714,-0.9714,-0.2373,341.1381,228.1712)" stroke-width="21" opacity="0.12" style="-webkit-tap-highlight-color: rgba(0, 0, 0, 0); opacity: 0.12;"></ellipse><ellipse cx="229" cy="231" rx="27" ry="38.07" fill="#6cda36" stroke="#40fa79" transform="matrix(-0.3392,0.9407,-0.9407,-0.3392,523.9875,93.9438)" stroke-width="21" opacity="0.12" style="-webkit-tap-highlight-color: rgba(0, 0, 0, 0); opacity: 0.12;"></ellipse><ellipse cx="105" cy="231" rx="53" ry="74.72999999999999" fill="#6cda36" stroke="#40fa79" transform="matrix(-0.4373,0.8993,-0.8993,-0.4373,358.6584,237.5902)" stroke-width="21" opacity="0.12" style="-webkit-tap-highlight-color: rgba(0, 0, 0, 0); opacity: 0.12;"></ellipse><ellipse cx="528" cy="241" rx="73" ry="102.92999999999999" fill="#6cda36" stroke="#40fa79" transform="matrix(-0.5304,0.8477,-0.8477,-0.5304,1012.3662,-78.7723)" stroke-width="21" opacity="0.12" style="-webkit-tap-highlight-color: rgba(0, 0, 0, 0); opacity: 0.12;"></ellipse><ellipse cx="306" cy="253" rx="29" ry="40.89" fill="#6cda36" stroke="#40fa79" transform="matrix(-0.6175,0.7866,-0.7866,-0.6175,693.9601,168.549)" stroke-width="21" opacity="0.12" style="-webkit-tap-highlight-color: rgba(0, 0, 0, 0); opacity: 0.12;"></ellipse><ellipse cx="368" cy="236" rx="55" ry="77.55" fill="#6cda36" stroke="#40fa79" transform="matrix(-0.6976,0.7165,-0.7165,-0.6976,793.8122,136.985)" stroke-width="21" opacity="0.12" style="-webkit-tap-highlight-color: rgba(0, 0, 0, 0); opacity: 0.12;"></ellipse><ellipse cx="299" cy="246" rx="73" ry="102.92999999999999" fill="#6cda36" stroke="#40fa79" transform="matrix(-0.7698,0.6382,-0.6382,-0.7698,686.1884,244.5441)" stroke-width="21" opacity="0.12" style="-webkit-tap-highlight-color: rgba(0, 0, 0, 0); opacity: 0.12;"></ellipse><ellipse cx="421" cy="240" rx="46" ry="64.86" fill="#6cda36" stroke="#40fa79" transform="matrix(-0.8333,0.5528,-0.5528,-0.8333,904.4972,207.2665)" stroke-width="21" opacity="0.12" style="-webkit-tap-highlight-color: rgba(0, 0, 0, 0); opacity: 0.12;"></ellipse><ellipse cx="8" cy="226" rx="55" ry="77.55" fill="#6cda36" stroke="#40fa79" transform="matrix(-0.8874,0.4611,-0.4611,-0.8874,119.3057,422.8528)" stroke-width="21" opacity="0.12" style="-webkit-tap-highlight-color: rgba(0, 0, 0, 0); opacity: 0.12;"></ellipse><ellipse cx="64" cy="233" rx="27" ry="38.07" fill="#6cda36" stroke="#40fa79" transform="matrix(-0.9313,0.3642,-0.3642,-0.9313,208.4549,426.6951)" stroke-width="21" opacity="0.12" style="-webkit-tap-highlight-color: rgba(0, 0, 0, 0); opacity: 0.12;"></ellipse><ellipse cx="397" cy="242" rx="66" ry="93.05999999999999" fill="#6cda36" stroke="#40fa79" transform="matrix(-0.9648,0.2631,-0.2631,-0.9648,843.6837,371.0221)" stroke-width="21" opacity="0.12" style="-webkit-tap-highlight-color: rgba(0, 0, 0, 0); opacity: 0.12;"></ellipse><ellipse cx="531" cy="245" rx="33" ry="46.529999999999994" fill="#6cda36" stroke="#40fa79" transform="matrix(-0.9873,0.1591,-0.1591,-0.9873,1094.2101,402.418)" stroke-width="21" opacity="0.12" style="-webkit-tap-highlight-color: rgba(0, 0, 0, 0); opacity: 0.12;"></ellipse><ellipse cx="156" cy="234" rx="115" ry="162.14999999999998" fill="#6cda36" stroke="#40fa79" transform="matrix(-0.9986,0.0532,-0.0532,-0.9986,324.2329,459.3657)" stroke-width="21" opacity="0.12" style="-webkit-tap-highlight-color: rgba(0, 0, 0, 0); opacity: 0.12;"></ellipse><ellipse cx="653" cy="246" rx="89" ry="125.49" fill="#6cda36" stroke="#40fa79" transform="matrix(-0.9986,-0.0532,0.0532,-0.9986,1291.9818,526.4054)" stroke-width="21" opacity="0.12" style="-webkit-tap-highlight-color: rgba(0, 0, 0, 0); opacity: 0.12;"></ellipse><ellipse cx="653" cy="248" rx="93" ry="131.13" fill="#6cda36" stroke="#40fa79" transform="matrix(-0.9873,-0.1591,0.1591,-0.9873,1258.2385,596.711)" stroke-width="21" opacity="0.12" style="-webkit-tap-highlight-color: rgba(0, 0, 0, 0); opacity: 0.12;"></ellipse><ellipse cx="682" cy="247" rx="107" ry="150.87" fill="#6cda36" stroke="#40fa79" transform="matrix(-0.9648,-0.2631,0.2631,-0.9648,1274.9854,664.7336)" stroke-width="21" opacity="0.12" style="-webkit-tap-highlight-color: rgba(0, 0, 0, 0); opacity: 0.12;"></ellipse><ellipse cx="-37" cy="243" rx="61" ry="86.00999999999999" fill="#6cda36" stroke="#40fa79" transform="matrix(-0.9313,-0.3642,0.3642,-0.9313,-159.9505,455.8407)" stroke-width="21" opacity="0.12" style="-webkit-tap-highlight-color: rgba(0, 0, 0, 0); opacity: 0.12;"></ellipse><ellipse cx="564" cy="235" rx="51" ry="71.91" fill="#6cda36" stroke="#40fa79" transform="matrix(-0.8874,-0.4611,0.4611,-0.8874,956.1098,703.5839)" stroke-width="21" opacity="0.12" style="-webkit-tap-highlight-color: rgba(0, 0, 0, 0); opacity: 0.12;"></ellipse><ellipse cx="557" cy="231" rx="27" ry="38.07" fill="#6cda36" stroke="#40fa79" transform="matrix(-0.8333,-0.5528,0.5528,-0.8333,893.459,731.4052)" stroke-width="21" opacity="0.12" style="-webkit-tap-highlight-color: rgba(0, 0, 0, 0); opacity: 0.12;"></ellipse><ellipse cx="677" cy="248" rx="64" ry="90.24" fill="#6cda36" stroke="#40fa79" transform="matrix(-0.7698,-0.6382,0.6382,-0.7698,1039.893,871.0101)" stroke-width="21" opacity="0.12" style="-webkit-tap-highlight-color: rgba(0, 0, 0, 0); opacity: 0.12;"></ellipse><ellipse cx="435" cy="235" rx="55" ry="77.55" fill="#6cda36" stroke="#40fa79" transform="matrix(-0.6976,-0.7165,0.7165,-0.6976,570.1024,710.6021)" stroke-width="21" opacity="0.12" style="-webkit-tap-highlight-color: rgba(0, 0, 0, 0); opacity: 0.12;"></ellipse><ellipse cx="41" cy="235" rx="30" ry="42.3" fill="#6cda36" stroke="#40fa79" transform="matrix(-0.6175,-0.7866,0.7866,-0.6175,-118.5211,412.3669)" stroke-width="21" opacity="0.12" style="-webkit-tap-highlight-color: rgba(0, 0, 0, 0); opacity: 0.12;"></ellipse><ellipse cx="470" cy="253" rx="122" ry="172.01999999999998" fill="#6cda36" stroke="#40fa79" transform="matrix(-0.5304,-0.8477,0.8477,-0.5304,504.821,785.6317)" stroke-width="21" opacity="0.12" style="-webkit-tap-highlight-color: rgba(0, 0, 0, 0); opacity: 0.12;"></ellipse><ellipse cx="534" cy="252" rx="116" ry="163.56" fill="#6cda36" stroke="#40fa79" transform="matrix(-0.4373,-0.8993,0.8993,-0.4373,540.8955,842.4341)" stroke-width="21" opacity="0.12" style="-webkit-tap-highlight-color: rgba(0, 0, 0, 0); opacity: 0.12;"></ellipse><ellipse cx="490" cy="248" rx="92" ry="129.72" fill="#6cda36" stroke="#40fa79" transform="matrix(-0.3392,-0.9407,0.9407,-0.3392,422.9334,793.0744)" stroke-width="21" opacity="0.12" style="-webkit-tap-highlight-color: rgba(0, 0, 0, 0); opacity: 0.12;"></ellipse><ellipse cx="-21" cy="250" rx="29" ry="40.89" fill="#6cda36" stroke="#40fa79" transform="matrix(-0.2373,-0.9714,0.9714,-0.2373,-268.8413,288.9316)" stroke-width="21" opacity="0.12" style="-webkit-tap-highlight-color: rgba(0, 0, 0, 0); opacity: 0.12;"></ellipse><ellipse cx="538" cy="249" rx="46" ry="64.86" fill="#6cda36" stroke="#40fa79" transform="matrix(-0.1327,-0.9912,0.9912,-0.1327,362.6093,815.2889)" stroke-width="21" opacity="0.12" style="-webkit-tap-highlight-color: rgba(0, 0, 0, 0); opacity: 0.12;"></ellipse><ellipse cx="508" cy="230" rx="23" ry="32.43" fill="#6cda36" stroke="#40fa79" transform="matrix(-0.0266,-0.9996,0.9996,-0.0266,291.6047,743.9427)" stroke-width="21" opacity="0.12" style="-webkit-tap-highlight-color: rgba(0, 0, 0, 0); opacity: 0.12;"></ellipse><ellipse cx="583" cy="240" rx="78" ry="109.97999999999999" fill="#6cda36" stroke="#40fa79" transform="matrix(0.0798,-0.9968,0.9968,0.0798,297.2498,801.9927)" stroke-width="21" opacity="0.12" style="-webkit-tap-highlight-color: rgba(0, 0, 0, 0); opacity: 0.12;"></ellipse><ellipse cx="313" cy="247" rx="34" ry="47.94" fill="#6cda36" stroke="#40fa79" transform="matrix(0.1853,-0.9827,0.9827,0.1853,12.2817,508.8138)" stroke-width="21" opacity="0.12" style="-webkit-tap-highlight-color: rgba(0, 0, 0, 0); opacity: 0.12;"></ellipse><ellipse cx="517" cy="226" rx="107" ry="150.87" fill="#6cda36" stroke="#40fa79" transform="matrix(0.2887,-0.9574,0.9574,0.2887,151.3689,655.7428)" stroke-width="21" opacity="0.12" style="-webkit-tap-highlight-color: rgba(0, 0, 0, 0); opacity: 0.12;"></ellipse><ellipse cx="596" cy="230" rx="27" ry="38.07" fill="#6cda36" stroke="#40fa79" transform="matrix(0.3888,-0.9213,0.9213,0.3888,152.359,689.6724)" stroke-width="21" opacity="0.12" style="-webkit-tap-highlight-color: rgba(0, 0, 0, 0); opacity: 0.12;"></ellipse><ellipse cx="173" cy="243" rx="113" ry="159.32999999999998" fill="#6cda36" stroke="#40fa79" transform="matrix(0.4846,-0.8748,0.8748,0.4846,-123.3947,276.5882)" stroke-width="21" opacity="0.12" style="-webkit-tap-highlight-color: rgba(0, 0, 0, 0); opacity: 0.12;"></ellipse><ellipse cx="645" cy="238" rx="65" ry="91.64999999999999" fill="#6cda36" stroke="#40fa79" transform="matrix(0.5748,-0.8183,0.8183,0.5748,79.5061,629.0059)" stroke-width="21" opacity="0.12" style="-webkit-tap-highlight-color: rgba(0, 0, 0, 0); opacity: 0.12;"></ellipse><ellipse cx="490" cy="243" rx="83" ry="117.02999999999999" fill="#6cda36" stroke="#40fa79" transform="matrix(0.6585,-0.7526,0.7526,0.6585,-15.5453,451.7414)" stroke-width="21" opacity="0.12" style="-webkit-tap-highlight-color: rgba(0, 0, 0, 0); opacity: 0.12;"></ellipse><ellipse cx="443" cy="244" rx="90" ry="126.89999999999999" fill="#6cda36" stroke="#40fa79" transform="matrix(0.7348,-0.6783,0.6783,0.7348,-48.013,365.2073)" stroke-width="21" opacity="0.12" style="-webkit-tap-highlight-color: rgba(0, 0, 0, 0); opacity: 0.12;"></ellipse><ellipse cx="228" cy="255" rx="121" ry="170.60999999999999" fill="#6cda36" stroke="#40fa79" transform="matrix(0.8027,-0.5964,0.5964,0.8027,-107.0919,186.2803)" stroke-width="21" opacity="0.12" style="-webkit-tap-highlight-color: rgba(0, 0, 0, 0); opacity: 0.12;"></ellipse><ellipse cx="197" cy="225" rx="60" ry="84.6" fill="#6cda36" stroke="#40fa79" transform="matrix(0.8616,-0.5077,0.5077,0.8616,-86.951,131.1605)" stroke-width="21" opacity="0.12" style="-webkit-tap-highlight-color: rgba(0, 0, 0, 0); opacity: 0.12;"></ellipse><ellipse cx="480" cy="240" rx="57" ry="80.36999999999999" fill="#6cda36" stroke="#40fa79" transform="matrix(0.9106,-0.4132,0.4132,0.9106,-56.2756,219.7895)" stroke-width="21" opacity="0.12" style="-webkit-tap-highlight-color: rgba(0, 0, 0, 0); opacity: 0.12;"></ellipse><ellipse cx="11" cy="235" rx="42" ry="59.22" fill="#6cda36" stroke="#40fa79" transform="matrix(0.9494,-0.3141,0.3141,0.9494,-73.2514,15.3464)" stroke-width="21" opacity="0.12" style="-webkit-tap-highlight-color: rgba(0, 0, 0, 0); opacity: 0.12;"></ellipse><ellipse cx="597" cy="224" rx="109" ry="153.69" fill="#6cda36" stroke="#40fa79" transform="matrix(0.9774,-0.2114,0.2114,0.9774,-33.8595,131.2571)" stroke-width="21" opacity="0.12" style="-webkit-tap-highlight-color: rgba(0, 0, 0, 0); opacity: 0.12;"></ellipse><ellipse cx="721" cy="245" rx="64" ry="90.24" fill="#6cda36" stroke="#40fa79" transform="matrix(0.9943,-0.1063,0.1063,0.9943,-21.9573,78.0256)" stroke-width="21" opacity="0.12" style="-webkit-tap-highlight-color: rgba(0, 0, 0, 0); opacity: 0.12;"></ellipse></svg>